<svg width="20" height="20" viewBox="0 0 20 20" fill="none" xmlns="http://www.w3.org/2000/svg">
<g clip-path="url(#clip0_558_318)">
<path d="M7.25 14.9999H2.5C1.25583 14.9999 0 14.0549 0 11.9449V7.74494C0.0175226 5.83008 0.734522 3.9877 2.01598 2.56472C3.29744 1.14175 5.05493 0.236381 6.9575 0.0191046C8.03113 -0.0588335 9.10896 0.0952559 10.1178 0.470902C11.1265 0.846549 12.0426 1.43495 12.8038 2.19612C13.565 2.95729 14.1534 3.8734 14.529 4.88219C14.9047 5.89097 15.0588 6.9688 14.9808 8.04244C14.7633 9.94579 13.8571 11.7039 12.4332 12.9854C11.0092 14.2669 9.16567 14.9835 7.25 14.9999ZM16.6667 7.56661H16.6567C16.6567 7.76411 16.6567 7.96161 16.6467 8.15994C16.325 12.6666 12.2058 16.4816 7.57 16.6508V16.6633C8.15384 17.6759 8.99364 18.5172 10.0052 19.1028C11.0167 19.6884 12.1645 19.9978 13.3333 19.9999H17.5C18.163 19.9999 18.7989 19.7365 19.2678 19.2677C19.7366 18.7989 20 18.163 20 17.4999V13.3333C19.9988 12.1642 19.6902 11.016 19.1051 10.0038C18.5201 8.99166 17.6791 8.15115 16.6667 7.56661Z" fill="#054462"/>
</g>
<defs>
<clipPath id="clip0_558_318">
<rect width="20" height="20" fill="white"/>
</clipPath>
</defs>
</svg>
