<svg width="80" height="80" viewBox="0 0 80 80" fill="none" xmlns="http://www.w3.org/2000/svg">
<circle cx="20" cy="20" r="20" fill="#F8CD12"/>
<path d="M57.5 68C60.5376 68 63 65.3137 63 62C63 58.6863 60.5376 56 57.5 56C54.4624 56 52 58.6863 52 62C52 65.3137 54.4624 68 57.5 68Z" fill="white"/>
<path d="M79.3868 60.521C77.6872 56.0615 74.7549 52.2139 70.9533 49.455C67.1516 46.696 62.6478 45.1471 58 45C53.3522 45.1471 48.8484 46.696 45.0467 49.455C41.2451 52.2139 38.3128 56.0615 36.6132 60.521L36 62L36.6132 63.4762C38.3124 67.9362 41.2445 71.7844 45.0462 74.5438C48.8478 77.3033 53.3518 78.8527 58 79C62.6482 78.8527 67.1522 77.3033 70.9538 74.5438C74.7555 71.7844 77.6876 67.9362 79.3868 63.4762L80 62L79.3868 60.521ZM58 73.3333C55.8244 73.3333 53.6977 72.6686 51.8887 71.4233C50.0798 70.178 48.6699 68.408 47.8373 66.3371C47.0048 64.2662 46.7869 61.9874 47.2114 59.789C47.6358 57.5905 48.6834 55.5711 50.2218 53.9861C51.7602 52.4011 53.7202 51.3217 55.854 50.8844C57.9878 50.4471 60.1995 50.6716 62.2095 51.5294C64.2195 52.3872 65.9375 53.8398 67.1462 55.7035C68.3549 57.5673 69 59.7585 69 62C68.9964 65.0046 67.8363 67.8851 65.7742 70.0097C63.712 72.1343 60.9163 73.3296 58 73.3333V73.3333Z" fill="white"/>
<path d="M28.5973 53C26.3478 51.295 24.567 49.0374 23.4241 46.4417C22.2811 43.846 21.814 40.9983 22.0669 38.1689C22.3198 35.3395 23.2844 32.6224 24.8691 30.2754C26.4539 27.9285 28.6061 26.0297 31.1216 24.7594C33.637 23.489 36.4322 22.8892 39.2416 23.0168C42.0511 23.1445 44.7816 23.9955 47.174 25.489C49.5663 26.9824 51.5411 29.0688 52.9108 31.55C54.2805 34.0312 54.9996 36.8248 55 39.6657H49.5C49.5 37.7716 49.0207 35.909 48.1076 34.2547C47.1946 32.6003 45.878 31.2092 44.283 30.2134C42.6881 29.2176 40.8676 28.6502 38.9944 28.5651C37.1213 28.48 35.2577 28.8799 33.5807 29.727C31.9036 30.574 30.4687 31.8401 29.4122 33.4049C28.3558 34.9697 27.7128 36.7814 27.5445 38.6678C27.3761 40.5543 27.6878 42.4529 28.4501 44.1834C29.2124 45.9139 30.4 47.4188 31.9 48.5553L28.5973 53Z" fill="white"/>
<path d="M75.2513 26.194L68.6437 14.806C67.9974 13.6889 66.9814 12.8297 65.7692 12.375C64.557 11.9203 63.2237 11.8983 61.997 12.3128L55.1823 14.6082C54.008 13.8205 52.7807 13.1141 51.509 12.4939L50.0979 5.47943C49.8442 4.21642 49.1585 3.07988 48.1575 2.2632C47.1565 1.44652 45.902 1.00013 44.6075 1H31.3925C30.098 1.00013 28.8435 1.44652 27.8425 2.2632C26.8415 3.07988 26.1558 4.21642 25.9021 5.47943L24.491 12.4939C23.205 13.1073 21.9636 13.8091 20.7757 14.5943L14.0002 12.3128C12.7742 11.8998 11.4423 11.9225 10.2313 12.3771C9.02029 12.8318 8.00522 13.6901 7.35906 14.806L0.75155 26.194C0.104269 27.3091 -0.134808 28.6129 0.0749807 29.8835C0.28477 31.1542 0.93047 32.3134 1.90226 33.1639L7.30867 37.8912C7.26107 38.5932 7.20227 39.2896 7.20227 40C7.20227 40.7187 7.23027 41.4291 7.28067 42.1339L1.90506 46.8361C0.932363 47.6859 0.285589 48.8447 0.0747731 50.1154C-0.136043 51.3861 0.102122 52.6903 0.74875 53.806L7.35626 65.194C8.00307 66.3106 9.01926 67.1692 10.2314 67.6234C11.4436 68.0776 12.7766 68.0991 14.003 67.6844L20.8177 65.3918C21.9918 66.179 23.2191 66.8845 24.491 67.5034L25.8993 74.5206C26.1531 75.7841 26.8392 76.9209 27.8408 77.7377C28.8424 78.5544 30.0975 79.0005 31.3925 79H35.2002V73.4286H31.3925L29.4046 63.5393C26.6547 62.5229 24.102 61.0414 21.8592 59.1601L12.2083 62.4083L5.60079 51.0203L13.2302 44.3485C12.7083 41.4677 12.7016 38.5179 13.2106 35.6348L5.60079 28.9769L12.2083 17.5917L21.8032 20.8231C24.0621 18.9392 26.6346 17.4629 29.4046 16.4607L31.3925 6.57143H44.6075L46.5954 16.4607C49.3452 17.4772 51.8979 18.9587 54.1408 20.8399L63.7917 17.5917L70.3992 28.9797L62.5654 35.8103L66.2555 40L74.0949 33.1639C75.0676 32.3141 75.7144 31.1553 75.9252 29.8846C76.136 28.6139 75.8979 27.3097 75.2513 26.194V26.194Z" fill="white"/>
</svg>
