<svg width="80" height="80" viewBox="0 0 80 80" fill="none" xmlns="http://www.w3.org/2000/svg">
<g clip-path="url(#clip0_1304_1393)">
<circle cx="20" cy="20" r="20" fill="#FFD166"/>
<path d="M80.0004 39.9434C79.9933 37.2299 79.1572 34.5834 77.6041 32.3583C76.051 30.1332 73.855 28.4358 71.3103 27.4934L71.1837 27.1901C67.8769 19.1016 61.5462 12.6214 53.537 9.12677L52.4403 8.64678C51.4962 6.10983 49.7988 3.9223 47.5758 2.37767C45.3528 0.833035 42.7106 0.00518799 40.0037 0.00518799C37.2967 0.00518799 34.6545 0.833035 32.4316 2.37767C30.2086 3.9223 28.5112 6.10983 27.567 8.64678L26.1737 9.27344C18.2355 12.8789 11.9877 19.3989 8.72368 27.4834C6.17483 28.4121 3.97192 30.0998 2.41185 32.3191C0.85178 34.5383 0.00953967 37.1825 -0.00135775 39.8953C-0.0122552 42.608 0.808714 45.2589 2.3509 47.4906C3.89309 49.7224 6.08237 51.4277 8.62368 52.3768L9.05034 53.3768C12.3948 61.1398 18.5372 67.3606 26.257 70.8035L27.567 71.3901C28.5138 73.9234 30.2119 76.1071 32.4339 77.6488C34.6559 79.1904 37.2959 80.0166 40.0003 80.0166C42.7048 80.0166 45.3448 79.1904 47.5668 77.6488C49.7888 76.1071 51.4869 73.9234 52.4337 71.3901L53.657 70.8468C61.7323 67.236 68.081 60.6182 71.3537 52.4001C73.8897 51.448 76.0755 49.7459 77.6202 47.5206C79.1649 45.2953 79.9951 42.6523 80.0004 39.9434ZM40.0003 6.66677C41.3189 6.66677 42.6078 7.05777 43.7041 7.79031C44.8005 8.52285 45.655 9.56404 46.1595 10.7822C46.6641 12.0004 46.7962 13.3408 46.5389 14.634C46.2817 15.9273 45.6467 17.1151 44.7144 18.0475C43.782 18.9798 42.5942 19.6148 41.3009 19.872C40.0077 20.1292 38.6673 19.9972 37.4491 19.4926C36.2309 18.9881 35.1898 18.1336 34.4572 17.0372C33.7247 15.9409 33.3337 14.652 33.3337 13.3334C33.3337 11.5653 34.0361 9.86964 35.2863 8.6194C36.5365 7.36915 38.2322 6.66677 40.0003 6.66677ZM13.2937 33.2834L13.567 33.3868L13.6003 33.3034C15.2707 33.4529 16.8148 34.2547 17.898 35.5349C18.9811 36.8152 19.516 38.4708 19.3867 40.1428C19.2574 41.8148 18.4743 43.3685 17.2072 44.467C15.9401 45.5656 14.291 46.1204 12.6176 46.0112C10.9441 45.9021 9.38114 45.1378 8.26743 43.884C7.15371 42.6302 6.57904 40.988 6.668 39.3134C6.75696 37.6387 7.50237 36.0666 8.74264 34.9379C9.98291 33.8091 11.6181 33.2147 13.2937 33.2834V33.2834ZM40.0003 73.3335C38.6818 73.3335 37.3929 72.9425 36.2965 72.2099C35.2002 71.4774 34.3457 70.4362 33.8411 69.218C33.3366 67.9998 33.2045 66.6594 33.4618 65.3662C33.719 64.073 34.354 62.8851 35.2863 61.9527C36.2187 61.0204 37.4065 60.3855 38.6997 60.1282C39.993 59.871 41.3334 60.003 42.5516 60.5076C43.7697 61.0122 44.8109 61.8667 45.5435 62.963C46.276 64.0593 46.667 65.3482 46.667 66.6668C46.667 68.4349 45.9646 70.1306 44.7144 71.3808C43.4641 72.6311 41.7685 73.3335 40.0003 73.3335ZM52.977 63.7135C52.3135 60.7668 50.667 58.1337 48.3083 56.2471C45.9496 54.3605 43.0191 53.3327 39.9987 53.3327C36.9783 53.3327 34.0478 54.3605 31.6891 56.2471C29.3304 58.1337 27.6839 60.7668 27.0203 63.7135C22.469 61.2298 18.7298 57.4871 16.2503 52.9335C19.1877 52.2698 21.813 50.6291 23.6969 48.2798C25.5809 45.9304 26.612 43.0114 26.6217 40C26.6313 36.9886 25.619 34.063 23.7502 31.7016C21.8814 29.3402 19.2667 27.6827 16.3337 27.0001C18.8223 22.5106 22.5262 18.8136 27.0203 16.3334C27.6867 19.2768 29.3339 21.9061 31.6917 23.7897C34.0494 25.6734 36.9775 26.6994 39.9953 26.6994C43.0131 26.6994 45.9413 25.6734 48.299 23.7897C50.6568 21.9061 52.304 19.2768 52.9703 16.3334C57.4613 18.8109 61.1672 22.4983 63.667 26.9768C60.725 27.6488 58.0988 29.3011 56.2197 31.6624C54.3406 34.0238 53.3201 36.9539 53.3259 39.9718C53.3318 42.9896 54.3635 45.9157 56.2517 48.2699C58.1399 50.624 60.7724 52.2662 63.717 52.9268C61.2296 57.466 57.5054 61.2063 52.977 63.7135ZM66.667 46.6101C65.3485 46.6101 64.0595 46.2191 62.9632 45.4866C61.8669 44.754 61.0124 43.7128 60.5078 42.4947C60.0032 41.2765 59.8712 39.9361 60.1284 38.6428C60.3857 37.3496 61.0206 36.1618 61.953 35.2294C62.8853 34.2971 64.0732 33.6621 65.3664 33.4049C66.6596 33.1476 68.0001 33.2797 69.2182 33.7842C70.4364 34.2888 71.4776 35.1433 72.2101 36.2396C72.9427 37.336 73.3337 38.6249 73.3337 39.9434C73.3337 41.7116 72.6313 43.4073 71.3811 44.6575C70.1308 45.9077 68.4351 46.6101 66.667 46.6101Z" fill="white"/>
</g>
<defs>
<clipPath id="clip0_1304_1393">
<rect width="80" height="80" fill="white"/>
</clipPath>
</defs>
</svg>
