<svg width="80" height="80" viewBox="0 0 80 80" fill="none" xmlns="http://www.w3.org/2000/svg">
<circle cx="20" cy="20" r="20" fill="#FFD166"/>
<path d="M74.0248 16.764C71.0373 11.7848 65.7261 8.46524 59.7509 8.46524H19.917C13.9419 8.46524 8.63078 11.7848 5.64313 16.764C1.99172 23.4031 0 30.706 0 38.3409C0 56.5981 7.30297 71.5359 16.5975 71.5359C21.5767 71.5359 25.5602 66.8885 28.5477 57.262C28.8795 55.9341 30.2073 54.9384 31.8672 54.9384H48.1328C49.4606 54.9384 50.7884 55.9341 51.4523 57.262C54.4398 66.8885 58.4233 71.5359 63.4025 71.5359C72.697 71.5359 80 56.5981 80 38.3409C79.6681 30.706 77.6764 23.4031 74.0248 16.764ZM63.0705 64.8968C62.0747 64.8968 59.7509 62.2412 57.4273 55.2702C56.0995 50.9549 52.1161 48.2993 47.8008 48.2993H31.8672C27.5519 48.2993 23.5684 51.2868 22.2406 55.2702C19.917 62.2412 17.5933 64.8968 16.5975 64.8968C13.278 64.8968 6.63906 54.6063 6.63906 38.3409C6.63906 32.0338 8.29875 25.7268 11.2864 20.0837C13.2781 17.0962 16.5977 15.1045 19.9172 15.1045H59.7512C63.0708 15.1045 66.3903 17.0962 68.382 20.0837C71.3695 25.7268 73.0294 32.0338 73.0294 38.3409C73.0291 54.6063 66.39 64.8968 63.0705 64.8968Z" fill="white"/>
<path d="M30.0002 30H26.6669V26.6668C26.6669 24.6668 25.3336 23.3335 23.3336 23.3335C21.3336 23.3335 20.0003 24.6668 20.0003 26.6668V30H16.667C14.667 30 13.3337 31.3333 13.3337 33.3333C13.3337 35.3333 14.667 36.6666 16.667 36.6666H20.0002V40C20.0002 42 21.3334 43.3333 23.3334 43.3333C25.3334 43.3333 26.6667 42 26.6667 40V36.6667H30.0002C32.0002 36.6667 33.3335 35.3335 33.3335 33.3335C33.3335 31.3333 32.0002 30 30.0002 30Z" fill="white"/>
<path d="M61.6667 33.3332C64.4282 33.3332 66.6667 31.0946 66.6667 28.3332C66.6667 25.5718 64.4282 23.3332 61.6667 23.3332C58.9053 23.3332 56.6667 25.5718 56.6667 28.3332C56.6667 31.0946 58.9053 33.3332 61.6667 33.3332Z" fill="white"/>
<path d="M51.6667 43.3333C54.4282 43.3333 56.6667 41.0947 56.6667 38.3332C56.6667 35.5718 54.4282 33.3332 51.6667 33.3332C48.9053 33.3332 46.6667 35.5718 46.6667 38.3332C46.6667 41.0947 48.9053 43.3333 51.6667 43.3333Z" fill="white"/>
</svg>
