<svg width="80" height="80" viewBox="0 0 80 80" fill="none" xmlns="http://www.w3.org/2000/svg">
<g clip-path="url(#clip0_343_24)">
<circle cx="20" cy="20" r="20" fill="#F8CD12"/>
<path d="M80 53.3331V69.9998C80 72.6519 78.9464 75.1955 77.0711 77.0708C75.1957 78.9462 72.6522 79.9998 70 79.9998H53.3333C48.657 79.995 44.0641 78.7605 40.0155 76.4203C35.9669 74.08 32.6048 70.7163 30.2667 66.6664C32.7796 66.6484 35.2839 66.3714 37.74 65.8398C39.6105 68.1786 41.9833 70.0665 44.6826 71.3636C47.3819 72.6608 50.3385 73.3339 53.3333 73.3331H70C70.884 73.3331 71.7319 72.9819 72.357 72.3568C72.9821 71.7317 73.3333 70.8838 73.3333 69.9998V53.3331C73.3325 50.3372 72.6574 47.3799 71.3579 44.6805C70.0584 41.9812 68.1679 39.6089 65.8267 37.7397C66.3628 35.2841 66.6443 32.7798 66.6667 30.2664C70.7165 32.6046 74.0803 35.9666 76.4205 40.0153C78.7607 44.0639 79.9952 48.6567 80 53.3331ZM59.9233 32.1698C60.2351 27.8752 59.6187 23.5639 58.1161 19.5287C56.6136 15.4936 54.26 11.8292 51.2153 8.78447C48.1706 5.73979 44.5062 3.38619 40.471 1.8836C36.4359 0.381016 32.1245 -0.235341 27.83 0.0764108C20.2197 0.945518 13.1898 4.567 8.06392 10.2589C2.93809 15.9508 0.0700905 23.3203 0 30.9797L0 47.7798C0 56.2198 5.02333 59.9998 10 59.9998H29C36.6627 59.9338 44.0367 57.0677 49.7326 51.9416C55.4285 46.8154 59.0531 39.7831 59.9233 32.1698ZM46.5 13.5031C48.8664 15.8748 50.6958 18.7271 51.8644 21.867C53.033 25.007 53.5135 28.3613 53.2733 31.7031C52.5619 37.6487 49.7017 43.1291 45.2311 47.1129C40.7605 51.0966 34.9879 53.3088 29 53.3331H10C6.90667 53.3331 6.66667 49.0831 6.66667 47.7798V30.9797C6.69446 24.9943 8.90883 19.2254 12.8931 14.7587C16.8773 10.2919 22.3566 7.4353 28.3 6.72641C28.8533 6.68641 29.4067 6.66641 29.96 6.66641C33.0309 6.66355 36.0723 7.26587 38.9103 8.43894C41.7483 9.61201 44.3273 11.3328 46.5 13.5031Z" fill="white"/>
</g>
<defs>
<clipPath id="clip0_343_24">
<rect width="80" height="80" fill="white"/>
</clipPath>
</defs>
</svg>
