<svg width="130" height="130" viewBox="0 0 130 130" fill="none" xmlns="http://www.w3.org/2000/svg">
<path fill-rule="evenodd" clip-rule="evenodd" d="M1.97057 0.514725C1.39039 0.821211 0.822656 1.40523 0.510605 2.01694C0.00990232 2.99861 0 3.47573 0 26.7801C0 50.0941 0.00964843 50.561 0.511113 51.5442C0.840176 52.1894 1.37947 52.7288 2.02465 53.0579C3.01057 53.5609 3.46633 53.569 30.5957 53.569C57.7251 53.569 58.1808 53.5609 59.1668 53.0579C59.8119 52.7288 60.3512 52.1894 60.6803 51.5442C61.1818 50.561 61.1914 50.0941 61.1914 26.7801C61.1914 3.46608 61.1818 2.99911 60.6803 2.01592C60.3512 1.3707 59.8119 0.831368 59.1668 0.502283C58.1803 -0.000993917 57.7365 -0.00861162 30.5424 0.00230709C3.54225 0.0132258 2.89859 0.0249063 1.97057 0.514725ZM70.7792 0.514725C70.199 0.821211 69.6312 1.40523 69.3192 2.01694C68.8185 2.99861 68.8086 3.47573 68.8086 26.7801C68.8086 50.0941 68.8182 50.561 69.3197 51.5442C69.6488 52.1894 70.1881 52.7288 70.8332 53.0579C71.8192 53.5609 72.2749 53.569 99.4043 53.569C126.534 53.569 126.989 53.5609 127.975 53.0579C128.621 52.7288 129.16 52.1894 129.489 51.5442C129.99 50.561 130 50.0941 130 26.7801C130 3.46608 129.99 2.99911 129.489 2.01592C129.16 1.3707 128.621 0.831368 127.975 0.502283C126.989 -0.000993917 126.545 -0.00861162 99.351 0.00230709C72.3508 0.0132258 71.7072 0.0249063 70.7792 0.514725ZM8.75977 61.5475C6.62187 62.0826 5.0215 62.9962 3.40945 64.6022C-1.15807 69.1531 -1.10297 76.2101 3.53539 80.736C4.32428 81.5057 5.56537 82.4119 6.29332 82.7502L7.61719 83.3649V102.874V122.382H5.32187C3.5227 122.382 2.81023 122.493 2.02465 122.893C0.898066 123.468 0 124.931 0 126.191C0 127.451 0.898066 128.914 2.02465 129.489C2.96918 129.971 3.50898 130 11.4258 130C19.3426 130 19.8824 129.971 20.8269 129.489C21.9535 128.914 22.8516 127.451 22.8516 126.191C22.8516 124.931 21.9535 123.468 20.8269 122.893C20.0413 122.493 19.3289 122.382 17.5297 122.382H15.2344V110.442V98.5015L16.5674 99.5558C20.637 102.774 25.4434 104.97 31.0558 106.176C34.5178 106.92 41.6307 106.983 45.0364 106.301C50.2684 105.252 55.0174 103.184 58.9123 100.259L61.1914 98.5478V110.465V122.382H58.8961C57.0969 122.382 56.3845 122.493 55.5989 122.893C54.4723 123.468 53.5742 124.931 53.5742 126.191C53.5742 127.451 54.4723 128.914 55.5989 129.489C56.5434 129.971 57.0832 130 65 130C72.9168 130 73.4566 129.971 74.4011 129.489C75.5277 128.914 76.4258 127.451 76.4258 126.191C76.4258 124.931 75.5277 123.468 74.4011 122.893C73.6155 122.493 72.9031 122.382 71.1039 122.382H68.8086V110.463V98.5432L70.9033 100.123C74.6741 102.967 79.4597 105.118 84.3644 106.175C86.5155 106.639 87.7718 106.736 91.6602 106.736C96.6035 106.736 99.1473 106.373 103.086 105.109C105.84 104.224 110.293 101.917 112.592 100.183L114.766 98.5432V110.463V122.382H112.47C110.671 122.382 109.959 122.493 109.173 122.893C108.047 123.468 107.148 124.931 107.148 126.191C107.148 127.451 108.047 128.914 109.173 129.489C110.118 129.971 110.657 130 118.574 130C126.491 130 127.031 129.971 127.975 129.489C129.102 128.914 130 127.451 130 126.191C130 124.931 129.102 123.468 127.975 122.893C127.19 122.493 126.477 122.382 124.678 122.382H122.383V102.874V83.3649L123.707 82.7502C124.435 82.4119 125.676 81.5057 126.465 80.736C131.102 76.2114 131.154 69.1878 126.583 64.5964C122.098 60.0905 115.088 60.0936 110.558 64.6035C105.99 69.1508 106.045 76.2101 110.684 80.736C111.473 81.5057 112.714 82.4119 113.442 82.7502L114.766 83.3649L114.763 85.1624C114.761 86.9226 114.734 86.995 113.495 88.6458C107.086 97.1776 95.4043 101.131 84.6777 98.3982C78.8869 96.9226 73.2903 93.1496 69.9235 88.4512C68.8624 86.9704 68.8086 86.8104 68.8086 85.1302V83.3649L70.1325 82.7502C70.8604 82.4119 72.1015 81.5057 72.8904 80.736C77.5277 76.2114 77.5795 69.1878 73.0092 64.5964C68.5242 60.0905 61.5139 60.0936 56.9837 64.6035C52.4161 69.1508 52.4712 76.2101 57.1096 80.736C57.8985 81.5057 59.1396 82.4119 59.8675 82.7502L61.1914 83.3649L61.1889 85.1624C61.1866 86.9211 61.1594 86.9963 59.929 88.6341C56.3626 93.3822 51.1494 96.8663 45.2476 98.4464C43.0386 99.0378 42.3226 99.1061 38.3398 99.1061C34.3741 99.1061 33.6357 99.0363 31.4714 98.4563C25.2891 96.7997 20.0495 93.3642 16.5011 88.6399C15.2661 86.9955 15.2392 86.9219 15.2369 85.1624L15.2344 83.3649L16.5582 82.7502C17.2862 82.4119 18.5273 81.5057 19.3162 80.736C23.9535 76.2114 24.0053 69.1878 19.435 64.5964C16.5717 61.7197 12.6024 60.5862 8.75977 61.5475Z" fill="#F777C5"/>
</svg>
