<svg width="130" height="130" viewBox="0 0 130 130" fill="none" xmlns="http://www.w3.org/2000/svg">
<g clip-path="url(#clip0_915_1439)">
<path d="M46.3204 25.2779C32.4658 40.8223 22.9577 63.1548 22.0748 65.259L6.72603 58.6747C2.31156 56.7741 1.22492 51.0043 4.62066 47.6103L25.063 27.1785C28.255 23.9882 32.8733 22.5627 37.3556 23.4451L46.3204 25.2779ZM56.4397 94.2437C58.4772 96.2801 61.4654 96.8231 64.0462 95.6012C71.9243 91.9357 88.8351 83.315 99.7694 72.3864C130.942 41.2296 131.214 15.8426 129.38 4.98187C129.14 3.64779 128.497 2.41908 127.538 1.46058C126.579 0.502069 125.35 -0.140395 124.015 -0.380629C113.149 -2.21338 87.7485 -1.94186 56.5756 29.2149C45.6413 40.1435 37.084 57.0456 33.3487 64.9196C32.1262 67.4991 32.7374 70.5536 34.707 72.5222L56.4397 94.2437ZM103.776 82.7041C88.2239 96.5516 65.8799 106.055 63.7745 106.937L70.3623 122.278C72.2639 126.69 78.0367 127.776 81.4324 124.382L101.875 103.95C105.067 100.76 106.493 96.1443 105.61 91.6642L103.776 82.7041ZM44.6225 100.353C45.2811 103.64 45.1174 107.039 44.1459 110.248C43.1744 113.458 41.4251 116.377 39.0535 118.748C33.8241 123.975 17.5924 127.844 7.0656 129.881C2.37947 130.763 -1.76333 126.622 -0.880441 121.939C1.15701 111.417 4.96024 95.194 10.2576 89.9672C12.6299 87.5968 15.5511 85.8485 18.7618 84.8775C21.9725 83.9065 25.3734 83.7429 28.6625 84.4011C36.6086 85.8945 43.1284 92.4109 44.6225 100.353ZM72.196 43.266C72.196 35.7992 78.3083 29.6901 85.779 29.6901C93.2496 29.6901 99.3619 35.7992 99.3619 43.266C99.3619 50.7328 93.2496 56.842 85.779 56.842C78.3083 56.842 72.196 50.7328 72.196 43.266Z" fill="#B588EE"/>
</g>
<defs>
<clipPath id="clip0_915_1439">
<rect width="130" height="130" fill="white"/>
</clipPath>
</defs>
</svg>
