<svg width="130" height="130" viewBox="0 0 130 130" fill="none" xmlns="http://www.w3.org/2000/svg">
<g clip-path="url(#clip0_330_159)">
<path d="M122.168 4.99956C119.722 2.96011 116.855 1.48798 113.773 0.689062C110.691 -0.109856 107.469 -0.215701 104.341 0.379139L54.5946 9.70664C48.3856 10.8702 42.7787 14.1676 38.744 19.0283C34.7093 23.889 32.5006 30.0071 32.5 36.3241V89.6783C29.2211 87.7287 25.4814 86.6891 21.6667 86.6666C17.3814 86.6666 13.1924 87.9374 9.62932 90.3181C6.06626 92.6989 3.28919 96.0828 1.64929 100.042C0.00938776 104.001 -0.419684 108.357 0.416329 112.56C1.25234 116.763 3.31589 120.624 6.34603 123.654C9.37617 126.684 13.2368 128.748 17.4397 129.584C21.6426 130.42 25.9991 129.991 29.9582 128.351C33.9172 126.711 37.3011 123.934 39.6819 120.371C42.0626 116.808 43.3333 112.619 43.3333 108.333V58.9116C43.3332 56.3841 44.2167 53.9361 45.8311 51.9914C47.4455 50.0466 49.689 48.7275 52.1733 48.2625L112.748 36.8875C113.534 36.7395 114.342 36.7674 115.116 36.969C115.89 37.1707 116.609 37.5411 117.223 38.0537C117.837 38.5664 118.329 39.2085 118.665 39.934C119.001 40.6595 119.172 41.4504 119.167 42.25V73.45C115.89 71.4928 112.15 70.4456 108.333 70.4166C104.048 70.4166 99.8591 71.6874 96.296 74.0681C92.7329 76.4489 89.9559 79.8328 88.316 83.7918C86.6761 87.7509 86.247 92.1073 87.083 96.3103C87.919 100.513 89.9826 104.374 93.0127 107.404C96.0428 110.434 99.9035 112.498 104.106 113.334C108.309 114.17 112.666 113.741 116.625 112.101C120.584 110.461 123.968 107.684 126.349 104.121C128.729 100.558 130 96.3686 130 92.0833V21.6666C130.004 18.4829 129.303 15.3378 127.949 12.4564C126.595 9.57498 124.621 7.0286 122.168 4.99956Z" fill="#F89C12"/>
</g>
<defs>
<clipPath id="clip0_330_159">
<rect width="130" height="130" fill="white"/>
</clipPath>
</defs>
</svg>
