<svg width="130" height="130" viewBox="0 0 130 130" fill="none" xmlns="http://www.w3.org/2000/svg">
<path fill-rule="evenodd" clip-rule="evenodd" d="M23.6017 0.12105C23.2523 0.183283 22.2806 0.353469 21.4422 0.498763C19.235 0.881555 16.9025 1.67305 14.5827 2.82625C4.34499 7.9166 -1.52218 19.3026 0.343861 30.4594C2.05544 40.6937 9.0783 48.6183 19.1638 51.6957C21.2816 52.3421 21.7732 52.3922 26.1422 52.4092C29.7727 52.4234 31.1692 52.3332 32.2787 52.0134L33.7151 51.5994L55.9694 73.8755C68.2093 86.1274 78.2237 96.3066 78.2237 96.4956C78.2237 96.6848 78.0392 97.82 77.8139 99.0184C77.2542 101.994 77.4519 107.488 78.2209 110.342C78.8827 112.797 80.5597 116.424 82.0526 118.628C83.5502 120.839 86.8468 124.067 89.1412 125.568C99.7509 132.511 113.371 131.147 122.271 122.248C131.217 113.304 132.548 99.4162 125.474 88.8476C123.86 86.4376 119.854 82.6236 117.396 81.158C114.882 79.6588 111.621 78.401 108.74 77.8183C106.165 77.2975 99.7402 77.4187 97.6216 78.0278L96.314 78.4038L74.0579 56.1297C61.817 43.879 51.8019 33.6996 51.8019 33.5091C51.8019 33.3183 51.9863 32.1819 52.2119 30.9835C52.7759 27.9864 52.5925 22.7617 51.8191 19.7872C48.8843 8.50133 38.9083 0.499779 27.2855 0.109874C25.6087 0.0534838 23.951 0.058564 23.6017 0.12105ZM101.343 0.152548C99.7107 0.330354 96.223 1.28365 94.4581 2.0345C85.7714 5.73034 80.0539 13.5086 78.9818 23.0894C78.7092 25.5261 78.7625 26.7672 79.2859 30.1595L79.5732 32.0224L74.8991 36.701L70.2247 41.3793L79.1129 50.2684L88.001 59.1574L92.4945 54.6699L96.9883 50.1823L98.8878 50.5996C108.916 52.8026 119.216 48.8457 125.295 40.4552C126.489 38.807 128.069 35.6451 128.768 33.5037C130.612 27.8548 130.371 21.4769 128.097 15.7988L127.439 14.1564L121.187 20.3872C113.894 27.6549 113.347 28.024 109.854 28.0342C108.137 28.0392 107.597 27.93 106.376 27.3316C103.703 26.0216 101.934 23.5318 101.451 20.4014C101.26 19.1578 101.875 16.5453 102.667 15.2359C102.97 14.7355 105.896 11.6188 109.171 8.30981L115.124 2.29334L114.178 1.89836C110.4 0.319686 105.691 -0.320672 101.343 0.152548ZM29.074 15.8608C37.0923 17.9355 39.8485 28.1096 33.9816 33.9754C29.7978 38.1585 23.327 38.2654 18.9047 34.2244C13.431 29.2227 14.7227 20.0816 21.3797 16.7094C23.9126 15.4261 26.3536 15.1569 29.074 15.8608ZM37.5326 75.3094L33.0442 79.8161L30.9271 79.3444C28.3957 78.7802 23.2257 78.6989 20.9341 79.1874C12.1458 81.0599 5.1849 86.7454 1.91698 94.7201C-0.699546 101.105 -0.606816 108.488 2.16798 114.761L2.78458 116.155L9.06458 109.92C16.3626 102.675 16.6685 102.467 20.0487 102.467C21.9821 102.467 22.3929 102.556 23.9164 103.306C26.8879 104.767 28.51 107.38 28.5207 110.723C28.5314 114.065 28.2262 114.519 21.2245 121.574C17.8664 124.958 15.1698 127.774 15.2318 127.831C15.6525 128.22 19.3612 129.289 21.5618 129.658C32.7413 131.527 43.888 125.609 48.757 115.221C51.0628 110.302 51.6502 105.745 50.7397 99.8424L50.4523 97.9795L55.0614 93.3652L59.6705 88.7508L50.8456 79.7767L42.0207 70.8028L37.5326 75.3094ZM105.551 92.9656C114.18 94.5552 117.527 105.007 111.408 111.257C106.132 116.647 97.1547 115.097 93.9106 108.235C90.6 101.233 95.593 93.1688 103.519 92.718C103.808 92.7014 104.722 92.813 105.551 92.9656Z" fill="#AFD100"/>
</svg>
