<svg width="260" height="260" viewBox="0 0 260 260" fill="none" xmlns="http://www.w3.org/2000/svg">
<rect width="260" height="260" rx="10" fill="#28B7FB"/>
<mask id="mask0_1183_1712" style="mask-type:alpha" maskUnits="userSpaceOnUse" x="0" y="0" width="260" height="260">
<rect width="260" height="260" rx="10" fill="#28B7FB"/>
</mask>
<g mask="url(#mask0_1183_1712)">
<path opacity="0.14" fill-rule="evenodd" clip-rule="evenodd" d="M66 388C131.722 388 185 334.722 185 269C185 203.278 131.722 150 66 150C0.278114 150 -53 203.278 -53 269C-53 334.722 0.278114 388 66 388ZM66 320C94.1665 320 117 297.167 117 269C117 240.833 94.1665 218 66 218C37.8335 218 15 240.833 15 269C15 297.167 37.8335 320 66 320Z" fill="white"/>
</g>
<circle cx="76.5" cy="88.5" r="27.5" fill="#F8CD12"/>
<path fill-rule="evenodd" clip-rule="evenodd" d="M49 81.4784C49 84.9642 51.6305 85.9345 61.0866 85.9345C67.7403 85.9345 68.7993 86.3311 69.6227 89.1215C70.1409 90.8736 75.3437 107.187 81.1869 125.369C90.8459 155.43 92.1846 158.644 95.9494 160.78C100.857 163.566 101.131 164.739 97.1688 165.994C93.14 167.27 88.7605 174.884 88.7548 180.623C88.7463 187.762 96.4789 195 104.114 195C118.67 195 125.489 175.499 113.791 167.323C111.138 165.469 112.948 165.255 131.288 165.255H151.743L147.954 169.201C138.125 179.438 144.648 195 158.769 195C166.659 195 173.926 187.69 173.926 179.752C173.926 173.168 170.303 167.864 164.037 165.275C161.47 164.214 159.73 162.452 159.73 160.915C159.73 158.517 157.668 158.304 130.5 157.899L101.27 157.464L98.3968 153.923L95.5249 150.382L129.604 150.003C154.507 149.726 164.062 149.154 165.096 147.878C167.472 144.945 185.477 92.943 184.99 90.4218C184.576 88.273 180.294 88.0592 137.706 88.0592H90.8785L90.4243 91.2461L89.9714 94.4331H133.368C157.237 94.4331 176.778 94.9119 176.792 95.4954C176.808 96.079 173.144 106.916 168.651 119.575L160.484 142.592L127.1 142.582L93.7178 142.572L83.718 111.066L73.7183 79.5605L61.3591 79.1512C49.9497 78.773 49 78.9529 49 81.4784ZM110.043 173.753C115.543 179.241 111.991 187.918 104.246 187.918C96.2078 187.918 92.5594 177.629 99.003 173.126C103.249 170.159 106.632 170.35 110.043 173.753ZM164.231 173.265C169.783 178.278 166.128 187.918 158.675 187.918C150.704 187.918 147.041 179.331 152.632 173.753C156.084 170.309 160.74 170.113 164.231 173.265Z" fill="white"/>
</svg>
