<svg width="260" height="260" viewBox="0 0 260 260" fill="none" xmlns="http://www.w3.org/2000/svg">
<rect width="260" height="260" rx="10" fill="#28B7FB"/>
<mask id="mask0_901_1287" style="mask-type:alpha" maskUnits="userSpaceOnUse" x="0" y="0" width="260" height="260">
<rect width="260" height="260" rx="10" fill="#28B7FB"/>
</mask>
<g mask="url(#mask0_901_1287)">
<path opacity="0.14" fill-rule="evenodd" clip-rule="evenodd" d="M-19 205C46.7219 205 100 151.722 100 86C100 20.2781 46.7219 -33 -19 -33C-84.7219 -33 -138 20.2781 -138 86C-138 151.722 -84.7219 205 -19 205ZM-19 137C9.16652 137 32 114.167 32 86C32 57.8335 9.16652 35 -19 35C-47.1665 35 -70 57.8335 -70 86C-70 114.167 -47.1665 137 -19 137Z" fill="white"/>
</g>
<circle cx="68.5" cy="88.5" r="27.5" fill="#F8CD12"/>
<path d="M119 92.5C119 99.263 116.313 105.749 111.531 110.531C106.749 115.313 100.263 118 93.5 118C86.737 118 80.251 115.313 75.4688 110.531C70.6866 105.749 68 99.263 68 92.5C68 85.737 70.6866 79.251 75.4688 74.4688C80.251 69.6866 86.737 67 93.5 67C100.263 67 106.749 69.6866 111.531 74.4688C116.313 79.251 119 85.737 119 92.5ZM76.5 92.5C76.5 97.0087 78.2911 101.333 81.4792 104.521C84.6673 107.709 88.9913 109.5 93.5 109.5C98.0087 109.5 102.333 107.709 105.521 104.521C108.709 101.333 110.5 97.0087 110.5 92.5C110.5 87.9913 108.709 83.6673 105.521 80.4792C102.333 77.2911 98.0087 75.5 93.5 75.5C88.9913 75.5 84.6673 77.2911 81.4792 80.4792C78.2911 83.6673 76.5 87.9913 76.5 92.5Z" fill="white"/>
<path d="M144.5 118.125H148.75C152.873 118.125 156.856 119.479 159.957 121.937C163.058 124.395 165.065 127.789 165.605 131.486L192.041 120.862C193.334 120.34 194.752 120.12 196.164 120.22C197.576 120.32 198.939 120.738 200.127 121.435C201.315 122.132 202.292 123.087 202.968 124.213C203.645 125.339 203.999 126.599 204 127.88V185.245C203.999 186.525 203.644 187.784 202.968 188.909C202.292 190.034 201.316 190.988 200.129 191.685C198.942 192.382 197.581 192.8 196.17 192.901C194.759 193.002 193.343 192.783 192.049 192.263L165.605 181.639C165.065 185.336 163.058 188.73 159.957 191.188C156.856 193.646 152.873 195 148.75 195H85C80.4913 195 76.1673 193.38 72.9792 190.497C69.7911 187.613 68 183.703 68 179.625V133.5C68 129.422 69.7911 125.512 72.9792 122.628C76.1673 119.745 80.4913 118.125 85 118.125H144.5ZM195.5 185.237V127.888L165.75 139.842V173.283L195.5 185.245V185.237ZM76.5 133.5V179.625C76.5 181.664 77.3955 183.619 78.9896 185.061C80.5837 186.503 82.7457 187.312 85 187.312H148.75C151.004 187.312 153.166 186.503 154.76 185.061C156.354 183.619 157.25 181.664 157.25 179.625V133.5C157.25 131.461 156.354 129.506 154.76 128.064C153.166 126.622 151.004 125.812 148.75 125.812H85C82.7457 125.812 80.5837 126.622 78.9896 128.064C77.3955 129.506 76.5 131.461 76.5 133.5Z" fill="white"/>
<path d="M144.5 118C151.263 118 157.749 115.313 162.531 110.531C167.313 105.749 170 99.263 170 92.5C170 85.737 167.313 79.251 162.531 74.4688C157.749 69.6866 151.263 67 144.5 67C137.737 67 131.251 69.6866 126.469 74.4688C121.687 79.251 119 85.737 119 92.5C119 99.263 121.687 105.749 126.469 110.531C131.251 115.313 137.737 118 144.5 118ZM127.5 92.5C127.5 87.9913 129.291 83.6673 132.479 80.4792C135.667 77.2911 139.991 75.5 144.5 75.5C149.009 75.5 153.333 77.2911 156.521 80.4792C159.709 83.6673 161.5 87.9913 161.5 92.5C161.5 97.0087 159.709 101.333 156.521 104.521C153.333 107.709 149.009 109.5 144.5 109.5C139.991 109.5 135.667 107.709 132.479 104.521C129.291 101.333 127.5 97.0087 127.5 92.5Z" fill="white"/>
</svg>
