<svg width="20" height="20" viewBox="0 0 20 20" fill="none" xmlns="http://www.w3.org/2000/svg">
<g clip-path="url(#clip0_577_1089)">
<path d="M2.92333 6.64123L10.8717 0.812893C11.4925 0.358297 12.227 0.0844864 12.9939 0.0218119C13.7608 -0.0408627 14.5301 0.110047 15.2165 0.457813C15.9029 0.805579 16.4796 1.33662 16.8826 1.99207C17.2857 2.64751 17.4994 3.40177 17.5 4.17123V15.8337C17.5012 16.6039 17.2886 17.3594 16.886 18.0159C16.4833 18.6725 15.9063 19.2045 15.2193 19.5526C14.5322 19.9007 13.762 20.0513 12.9944 19.9876C12.2269 19.924 11.492 19.6486 10.8717 19.1921L2.92333 13.3637C2.39593 12.9767 1.96707 12.4709 1.67147 11.8873C1.37587 11.3037 1.22184 10.6587 1.22184 10.0046C1.22184 9.35038 1.37587 8.70539 1.67147 8.12181C1.96707 7.53822 2.39593 7.03243 2.92333 6.64539V6.64123Z" fill="#054462"/>
</g>
<defs>
<clipPath id="clip0_577_1089">
<rect width="20" height="20" fill="white" transform="matrix(-1 0 0 1 20 0)"/>
</clipPath>
</defs>
</svg>
