<svg width="20" height="20" viewBox="0 0 20 20" fill="none" xmlns="http://www.w3.org/2000/svg">
<g clip-path="url(#clip0_549_484)">
<path d="M18.5 1.80248C18.0249 1.40611 17.4676 1.12052 16.8684 0.966426C16.2692 0.812337 15.6432 0.793623 15.0358 0.911644L13.5658 1.27164C12.7987 1.41222 12.1051 1.81734 11.6059 2.4165C11.1066 3.01565 10.8332 3.7709 10.8333 4.55081V17.44C10.2807 17.5208 9.71928 17.5208 9.16667 17.44V4.55081C9.16943 3.77809 8.90237 3.02865 8.41157 2.43181C7.92078 1.83498 7.23703 1.42819 6.47833 1.28164L4.91667 0.901644C4.31596 0.791722 3.69844 0.815185 3.10781 0.970373C2.51718 1.12556 1.96789 1.40868 1.4988 1.79969C1.02972 2.1907 0.652322 2.68004 0.393318 3.23307C0.134315 3.7861 4.0677e-05 4.3893 0 4.99998L0 13.9941C4.78799e-05 14.9698 0.342481 15.9145 0.967611 16.6636C1.59274 17.4127 2.46092 17.9187 3.42083 18.0933L8.65917 19.0458C9.5458 19.2069 10.4542 19.2069 11.3408 19.0458L16.5833 18.0933C17.5425 17.9178 18.4097 17.4115 19.034 16.6625C19.6583 15.9134 20.0001 14.9692 20 13.9941V4.99998C20.0004 4.38951 19.8662 3.78648 19.6069 3.2338C19.3476 2.68113 18.9697 2.19242 18.5 1.80248Z" fill="#28B7FB"/>
</g>
<defs>
<clipPath id="clip0_549_484">
<rect width="20" height="20" fill="white"/>
</clipPath>
</defs>
</svg>
