<svg width="20" height="20" viewBox="0 0 20 20" fill="none" xmlns="http://www.w3.org/2000/svg">
<g clip-path="url(#clip0_549_494)">
<path d="M9.99994 13.3334C10.9204 13.3334 11.6666 12.5872 11.6666 11.6667C11.6666 10.7462 10.9204 10 9.99994 10C9.07945 10 8.33325 10.7462 8.33325 11.6667C8.33325 12.5872 9.07945 13.3334 9.99994 13.3334Z" fill="#28B7FB"/>
<path d="M18.78 3.435L16.565 1.22C16.3434 1.00184 16.0979 0.809258 15.8333 0.64582V2.5C15.8305 4.80004 13.9667 6.66391 11.6666 6.66668H8.33332C6.03328 6.66391 4.16941 4.80004 4.16668 2.5V0C1.86664 0.00277344 0.00277344 1.86664 0 4.16668V15.8334C0.00277344 18.1334 1.86664 19.9973 4.16668 20H15.8334C18.1334 19.9973 19.9973 18.1334 20 15.8334V6.38086C20.0031 5.27535 19.5638 4.21457 18.78 3.435ZM10 15C8.15906 15 6.66668 13.5076 6.66668 11.6667C6.66668 9.82574 8.15906 8.33336 10 8.33336C11.8409 8.33336 13.3333 9.82574 13.3333 11.6667C13.3333 13.5076 11.8409 15 10 15Z" fill="#28B7FB"/>
<path d="M8.33325 5.00002H11.6666C13.0473 5.00002 14.1666 3.88073 14.1666 2.50002V0.0533814C13.9854 0.0238501 13.8025 0.0060376 13.6191 6.10352e-05H5.83325V2.50006C5.83325 3.88073 6.95255 5.00002 8.33325 5.00002Z" fill="#28B7FB"/>
</g>
<defs>
<clipPath id="clip0_549_494">
<rect width="20" height="20" fill="white"/>
</clipPath>
</defs>
</svg>
