<svg width="20" height="10" viewBox="0 0 20 10" fill="none" xmlns="http://www.w3.org/2000/svg">
<g clip-path="url(#clip0_267_328)">
<path d="M10.0001 10.0001C9.70804 10.0007 9.42499 9.89895 9.2001 9.7126L1.7001 3.4626C1.44483 3.25043 1.2843 2.94554 1.25382 2.61501C1.22335 2.28447 1.32543 1.95537 1.5376 1.7001C1.74977 1.44483 2.05466 1.2843 2.3852 1.25382C2.71573 1.22335 3.04483 1.32543 3.3001 1.5376L10.0001 7.1376L16.7001 1.7376C16.828 1.63377 16.9751 1.55623 17.133 1.50944C17.2909 1.46265 17.4565 1.44753 17.6203 1.46496C17.7841 1.48238 17.9428 1.532 18.0874 1.61097C18.2319 1.68994 18.3594 1.79669 18.4626 1.9251C18.5771 2.05363 18.6638 2.20441 18.7173 2.368C18.7708 2.53159 18.7899 2.70447 18.7735 2.8758C18.757 3.04713 18.7054 3.21322 18.6218 3.36366C18.5382 3.51411 18.4244 3.64567 18.2876 3.7501L10.7876 9.7876C10.5562 9.94449 10.279 10.0193 10.0001 10.0001Z" fill="#054462"/>
</g>
<defs>
<clipPath id="clip0_267_328">
<rect width="20" height="10" fill="white"/>
</clipPath>
</defs>
</svg>
