<svg width="80" height="80" viewBox="0 0 80 80" fill="none" xmlns="http://www.w3.org/2000/svg">
<g clip-path="url(#clip0_913_1424)">
<circle cx="20" cy="20" r="20" fill="#FFD166"/>
<path d="M79.6662 38.1239C78.3565 28.042 73.2569 18.837 65.404 12.38C57.5511 5.92306 47.5341 2.6986 37.3892 3.36206C27.2442 4.02552 17.7325 8.5271 10.7874 15.9518C3.8423 23.3766 -0.0149999 33.1673 -0.000485575 43.3339C-0.0197002 48.7756 1.08304 54.1629 3.2389 59.1594C5.39475 64.1559 8.55744 68.6543 12.5295 72.3739C15.5673 75.1864 19.57 76.7235 23.7095 76.6672H56.2662C60.6394 76.6775 64.841 74.9664 67.9629 71.9039C72.4119 67.5754 75.7872 62.2666 77.8192 56.4014C79.8513 50.5361 80.4838 44.2771 79.6662 38.1239ZM63.3029 67.1239C61.4274 68.9717 58.899 70.0054 56.2662 70.0006H23.7095C21.2738 70.0506 18.9112 69.1669 17.1062 67.5306C13.7971 64.4309 11.1623 60.6827 9.36603 56.5196C7.56981 52.3565 6.65075 47.8679 6.66618 43.3339C6.66946 38.6414 7.66209 34.0023 9.57931 29.7192C11.4965 25.4362 14.2952 21.6056 17.7929 18.4772C23.87 12.9969 31.7696 9.97514 39.9529 10.0006C41.2604 10.0011 42.5668 10.0746 43.8662 10.2206C50.1182 10.9467 56.0367 13.4291 60.936 17.3803C65.8353 21.3315 69.515 26.5898 71.549 32.5462C73.5829 38.5026 73.8878 44.9133 72.4284 51.0358C70.969 57.1583 67.805 62.7422 63.3029 67.1406V67.1239ZM26.0229 57.6172C26.655 58.2361 27.0153 59.0807 27.0247 59.9652C27.0341 60.8498 26.6917 61.7018 26.0729 62.3339C25.454 62.966 24.6094 63.3264 23.7249 63.3357C22.8403 63.3451 21.9883 63.0027 21.3562 62.3839C17.5727 58.6778 14.9785 53.9291 13.9042 48.743C12.8299 43.5569 13.3242 38.1684 15.3241 33.2643C17.324 28.3602 20.7389 24.1627 25.1335 21.2068C29.5281 18.251 34.7033 16.6706 39.9995 16.6672C41.2743 16.6669 42.5475 16.7571 43.8095 16.9372C44.2429 16.9997 44.6598 17.147 45.0363 17.3706C45.4128 17.5943 45.7415 17.8899 46.0037 18.2406C46.2659 18.5913 46.4564 18.9903 46.5643 19.4147C46.6723 19.839 46.6956 20.2805 46.6329 20.7139C46.5755 21.1497 46.4315 21.5695 46.2094 21.9489C45.9874 22.3282 45.6917 22.6592 45.3398 22.9226C44.9879 23.186 44.5869 23.3763 44.1604 23.4824C43.7339 23.5886 43.2905 23.6083 42.8562 23.5406C38.6845 22.9447 34.4311 23.6818 30.7032 25.6466C26.9752 27.6114 23.9631 30.7035 22.0967 34.4817C20.2303 38.26 19.6051 42.5312 20.3101 46.6858C21.0152 50.8405 23.0145 54.6663 26.0229 57.6172ZM66.3962 39.5239C66.5763 40.7859 66.6666 42.0591 66.6662 43.3339C66.677 46.8861 65.9718 50.4041 64.5927 53.6778C63.2136 56.9514 61.1889 59.9135 58.6395 62.3872C58.0065 63.0061 57.1537 63.3481 56.2685 63.3381C55.3833 63.3281 54.5384 62.9669 53.9195 62.3339C53.3007 61.7009 52.9586 60.848 52.9686 59.9628C52.9786 59.0777 53.3399 58.2327 53.9729 57.6139C56.225 55.4186 57.9258 52.7216 58.9362 49.7433C59.9466 46.7649 60.2378 43.5897 59.7862 40.4772C59.6598 39.6016 59.8864 38.7116 60.4162 38.003C60.946 37.2944 61.7355 36.8253 62.6112 36.6989C63.4869 36.5725 64.3769 36.7991 65.0854 37.3289C65.794 37.8587 66.2631 38.6482 66.3895 39.5239H66.3962ZM46.4195 41.6272C46.8207 43.0697 46.7328 44.6045 46.1696 45.9918C45.6064 47.3791 44.5997 48.5408 43.3066 49.2955C42.0135 50.0503 40.5068 50.3555 39.0219 50.1636C37.537 49.9717 36.1575 49.2934 35.0988 48.2346C34.0401 47.1759 33.3618 45.7964 33.1698 44.3115C32.9779 42.8266 33.2831 41.32 34.0379 40.0269C34.7926 38.7337 35.9543 37.727 37.3416 37.1638C38.7289 36.6006 40.2637 36.5128 41.7062 36.9139L54.3095 24.3106C54.617 23.9922 54.9848 23.7383 55.3915 23.5636C55.7982 23.3889 56.2356 23.2969 56.6782 23.2931C57.1208 23.2892 57.5597 23.3736 57.9694 23.5412C58.379 23.7088 58.7512 23.9563 59.0642 24.2692C59.3772 24.5822 59.6247 24.9544 59.7923 25.3641C59.9599 25.7737 60.0442 26.2126 60.0404 26.6552C60.0365 27.0978 59.9446 27.5352 59.7699 27.9419C59.5952 28.3486 59.3412 28.7164 59.0229 29.0239L46.4195 41.6272Z" fill="white"/>
</g>
<defs>
<clipPath id="clip0_913_1424">
<rect width="80" height="80" fill="white"/>
</clipPath>
</defs>
</svg>
