<svg width="80" height="80" viewBox="0 0 80 80" fill="none" xmlns="http://www.w3.org/2000/svg">
<g clip-path="url(#clip0_434_164)">
<circle cx="20" cy="20" r="20" fill="#FFD166"/>
<path d="M74.9995 13.2535H64.7128C64.0536 13.2536 63.4093 13.4492 62.8613 13.8155C62.3133 14.1818 61.8861 14.7023 61.6339 15.3113C61.3817 15.9203 61.3157 16.5904 61.4442 17.2369C61.5728 17.8834 61.8901 18.4773 62.3562 18.9435L65.9762 22.5635L54.0228 34.5135C53.3877 35.1205 52.543 35.4592 51.6645 35.4592C50.786 35.4592 49.9413 35.1205 49.3062 34.5135L48.7395 33.9435C46.8349 32.1237 44.302 31.1082 41.6678 31.1082C39.0336 31.1082 36.5008 32.1237 34.5962 33.9435L17.5962 50.9435C16.9698 51.5716 16.6186 52.4228 16.6199 53.3099C16.6211 54.1969 16.9747 55.0471 17.6028 55.6735C18.2309 56.2998 19.0822 56.651 19.9692 56.6498C20.8563 56.6485 21.7065 56.2949 22.3328 55.6668L39.3328 38.6668C39.9675 38.0591 40.8124 37.7198 41.6912 37.7198C42.5699 37.7198 43.4148 38.0591 44.0495 38.6668L44.6162 39.2368C46.5216 41.0551 49.0541 42.0695 51.6878 42.0695C54.3216 42.0695 56.8541 41.0551 58.7595 39.2368L70.7128 27.2835L74.3328 30.9035C74.8006 31.362 75.393 31.6725 76.0362 31.7963C76.6794 31.9201 77.3448 31.8517 77.9493 31.5995C78.5538 31.3474 79.0706 30.9228 79.4353 30.3787C79.7999 29.8346 79.9961 29.1951 79.9995 28.5402V18.2535C79.9995 16.9274 79.4727 15.6556 78.535 14.7179C77.5973 13.7803 76.3256 13.2535 74.9995 13.2535Z" fill="white"/>
<path d="M76.6667 73.2533H16.6667C14.0145 73.2533 11.471 72.1998 9.5956 70.3244C7.72024 68.449 6.66667 65.9055 6.66667 63.2533V3.33333C6.66667 2.44928 6.31548 1.60143 5.69036 0.976311C5.06523 0.35119 4.21739 0 3.33333 0C2.44928 0 1.60143 0.35119 0.976311 0.976311C0.35119 1.60143 0 2.44928 0 3.33333L0 63.2533C0.00529286 67.672 1.76294 71.9081 4.8874 75.0326C8.01186 78.1571 12.248 79.9147 16.6667 79.92H76.6667C77.5507 79.92 78.3986 79.5688 79.0237 78.9437C79.6488 78.3186 80 77.4707 80 76.5867C80 75.7026 79.6488 74.8548 79.0237 74.2296C78.3986 73.6045 77.5507 73.2533 76.6667 73.2533Z" fill="white"/>
</g>
<defs>
<clipPath id="clip0_434_164">
<rect width="80" height="80" fill="white"/>
</clipPath>
</defs>
</svg>
