<svg width="80" height="80" viewBox="0 0 80 80" fill="none" xmlns="http://www.w3.org/2000/svg">
<g clip-path="url(#clip0_343_11)">
<circle cx="20" cy="20" r="20" fill="#F8CD12"/>
<path d="M65.1167 10.4068L59.5967 4.88013C58.0522 3.32784 56.2153 2.09726 54.1921 1.25961C52.1689 0.421959 49.9997 -0.00612561 47.81 0.000128587H26.6667C22.248 0.00542145 18.0119 1.76307 14.8874 4.88753C11.7629 8.01199 10.0053 12.2481 10 16.6668V63.3335C10.0053 67.7521 11.7629 71.9883 14.8874 75.1127C18.0119 78.2372 22.248 79.9949 26.6667 80.0001H53.3333C57.752 79.9949 61.9881 78.2372 65.1126 75.1127C68.2371 71.9883 69.9947 67.7521 70 63.3335V22.1901C70.0054 20.0007 69.5765 17.832 68.7383 15.8094C67.9001 13.7869 66.6692 11.9506 65.1167 10.4068ZM60.4033 15.1201C60.8761 15.5912 61.2995 16.1095 61.6667 16.6668H53.3333V8.33346C53.8898 8.70453 54.4089 9.12874 54.8833 9.60013L60.4033 15.1201ZM63.3333 63.3335C63.3333 65.9856 62.2798 68.5292 60.4044 70.4045C58.529 72.2799 55.9855 73.3335 53.3333 73.3335H26.6667C24.0145 73.3335 21.471 72.2799 19.5956 70.4045C17.7202 68.5292 16.6667 65.9856 16.6667 63.3335V16.6668C16.6667 14.0146 17.7202 11.4711 19.5956 9.59573C21.471 7.72037 24.0145 6.6668 26.6667 6.6668H46.6667V16.6668C46.6667 18.4349 47.369 20.1306 48.6193 21.3808C49.8695 22.6311 51.5652 23.3335 53.3333 23.3335H63.3333V63.3335ZM53.3333 30.0001C54.2174 30.0001 55.0652 30.3513 55.6903 30.9764C56.3155 31.6016 56.6667 32.4494 56.6667 33.3335C56.6667 34.2175 56.3155 35.0654 55.6903 35.6905C55.0652 36.3156 54.2174 36.6668 53.3333 36.6668H26.6667C25.7826 36.6668 24.9348 36.3156 24.3096 35.6905C23.6845 35.0654 23.3333 34.2175 23.3333 33.3335C23.3333 32.4494 23.6845 31.6016 24.3096 30.9764C24.9348 30.3513 25.7826 30.0001 26.6667 30.0001H53.3333ZM56.6667 46.6668C56.6667 47.5509 56.3155 48.3987 55.6903 49.0238C55.0652 49.6489 54.2174 50.0001 53.3333 50.0001H26.6667C25.7826 50.0001 24.9348 49.6489 24.3096 49.0238C23.6845 48.3987 23.3333 47.5509 23.3333 46.6668C23.3333 45.7827 23.6845 44.9349 24.3096 44.3098C24.9348 43.6847 25.7826 43.3335 26.6667 43.3335H53.3333C54.2174 43.3335 55.0652 43.6847 55.6903 44.3098C56.3155 44.9349 56.6667 45.7827 56.6667 46.6668ZM56.0267 58.0435C56.5448 58.7563 56.7596 59.6453 56.6241 60.5161C56.4885 61.3869 56.0136 62.1685 55.3033 62.6901C51.926 65.0967 47.926 66.4775 43.7833 66.6668C41.3629 66.6551 39.0161 65.8337 37.1167 64.3335C36.0233 63.5835 35.6067 63.3335 34.7833 63.3335C32.5548 63.6783 30.4521 64.5897 28.6767 65.9801C27.9725 66.4821 27.1008 66.6908 26.2456 66.5621C25.3905 66.4334 24.6188 65.9774 24.0936 65.2903C23.5684 64.6033 23.3307 63.7391 23.4308 62.8801C23.5309 62.0211 23.9609 61.2347 24.63 60.6868C27.5673 58.4066 31.0943 57.012 34.7967 56.6668C37.0171 56.7023 39.1637 57.4698 40.9033 58.8501C41.6963 59.5634 42.7172 59.971 43.7833 60.0001C46.5089 59.796 49.1299 58.8647 51.3733 57.3035C52.0887 56.785 52.9806 56.5716 53.8531 56.7104C54.7257 56.8491 55.5075 57.3286 56.0267 58.0435Z" fill="white"/>
</g>
<defs>
<clipPath id="clip0_343_11">
<rect width="80" height="80" fill="white"/>
</clipPath>
</defs>
</svg>
