<svg width="80" height="80" viewBox="0 0 80 80" fill="none" xmlns="http://www.w3.org/2000/svg">
<circle cx="20" cy="20" r="20" fill="#FFD166"/>
<path d="M76 28C73.7909 28 72 29.7909 72 32V72H8V24H24.2L31.52 16H48C50.2091 16 52 14.2091 52 12V12C52 9.79086 50.2091 8 48 8H28L20.68 16H8C3.6 16 0 19.6 0 24V72C0 76.4 3.6 80 8 80H72C76.4 80 80 76.4 80 72V32C80 29.7909 78.2091 28 76 28V28ZM74.4857 21.3163C74.6953 22.7676 75.8657 23.96 77.332 23.96V23.96C78.8045 23.96 80.0126 22.7607 79.8462 21.2976C79.2347 15.921 76.8193 10.8787 72.9529 7.01879C69.0848 3.15709 64.0357 0.749746 58.6553 0.148518C57.1952 -0.0146455 56 1.19143 56 2.66066V2.66066C56 4.12937 57.1974 5.30011 58.6516 5.50584C66.8457 6.66507 73.3024 13.1214 74.4857 21.3163ZM63.5522 21.3644C64.0331 22.7479 65.1804 23.96 66.6451 23.96V23.96C68.1215 23.96 69.3444 22.7496 69.0465 21.3036C68.5243 18.7678 67.2688 16.4189 65.408 14.5637C63.5434 12.7046 61.1848 11.455 58.6415 10.9423C57.2016 10.6521 56 11.87 56 13.3388V13.3388C56 14.8085 57.2239 15.9555 58.614 16.4327C60.931 17.2282 62.7493 19.0551 63.5522 21.3644ZM20 48C20 59.04 28.96 68 40 68C51.04 68 60 59.04 60 48C60 36.96 51.04 28 40 28C28.96 28 20 36.96 20 48ZM52 48C52 54.6 46.6 60 40 60C33.4 60 28 54.6 28 48C28 41.4 33.4 36 40 36C46.6 36 52 41.36 52 48Z" fill="white"/>
</svg>
