<svg width="80" height="80" viewBox="0 0 80 80" fill="none" xmlns="http://www.w3.org/2000/svg">
<circle cx="20" cy="20" r="20" fill="#F8CD12"/>
<path d="M62.4399 56.6672C65.2014 56.6672 67.4399 54.4286 67.4399 51.6672C67.4399 48.9058 65.2014 46.6672 62.4399 46.6672C59.6785 46.6672 57.4399 48.9058 57.4399 51.6672C57.4399 54.4286 59.6785 56.6672 62.4399 56.6672Z" fill="white"/>
<path d="M63.3333 9.99997H16.6667C12.248 10.0053 8.01186 11.7629 4.8874 14.8874C1.76294 18.0118 0.00529286 22.248 0 26.6666L0 53.3333C0.00529286 57.7519 1.76294 61.9881 4.8874 65.1126C8.01186 68.237 12.248 69.9947 16.6667 70H63.3333C67.752 69.9947 71.9881 68.237 75.1126 65.1126C78.2371 61.9881 79.9947 57.7519 80 53.3333V26.6666C79.9947 22.248 78.2371 18.0118 75.1126 14.8874C71.9881 11.7629 67.752 10.0053 63.3333 9.99997ZM16.6667 16.6666H63.3333C65.9855 16.6666 68.529 17.7202 70.4044 19.5956C72.2798 21.4709 73.3333 24.0145 73.3333 26.6666H6.66667C6.66667 24.0145 7.72023 21.4709 9.5956 19.5956C11.471 17.7202 14.0145 16.6666 16.6667 16.6666ZM63.3333 63.3333H16.6667C14.0145 63.3333 11.471 62.2797 9.5956 60.4044C7.72023 58.529 6.66667 55.9855 6.66667 53.3333V33.3333H73.3333V53.3333C73.3333 55.9855 72.2798 58.529 70.4044 60.4044C68.529 62.2797 65.9855 63.3333 63.3333 63.3333Z" fill="white"/>
</svg>
