<svg width="80" height="80" viewBox="0 0 80 80" fill="none" xmlns="http://www.w3.org/2000/svg">
<g clip-path="url(#clip0_343_19)">
<circle cx="20" cy="20" r="20" fill="#F8CD12"/>
<path d="M3.33333 15.8343H12.4533C13.1688 18.4668 14.7306 20.7907 16.8978 22.4475C19.0649 24.1042 21.7171 25.0019 24.445 25.0019C27.1729 25.0019 29.8251 24.1042 31.9922 22.4475C34.1594 20.7907 35.7212 18.4668 36.4367 15.8343H76.6667C77.5507 15.8343 78.3986 15.4832 79.0237 14.858C79.6488 14.2329 80 13.3851 80 12.501C80 11.617 79.6488 10.7691 79.0237 10.144C78.3986 9.51887 77.5507 9.16768 76.6667 9.16768H36.4367C35.7212 6.53524 34.1594 4.21137 31.9922 2.55458C29.8251 0.89779 27.1729 0.000152588 24.445 0.000152588C21.7171 0.000152588 19.0649 0.89779 16.8978 2.55458C14.7306 4.21137 13.1688 6.53524 12.4533 9.16768H3.33333C2.44928 9.16768 1.60143 9.51887 0.976311 10.144C0.351189 10.7691 0 11.617 0 12.501C0 13.3851 0.351189 14.2329 0.976311 14.858C1.60143 15.4832 2.44928 15.8343 3.33333 15.8343ZM24.4433 6.66768C25.5971 6.66768 26.7249 7.0098 27.6842 7.65077C28.6434 8.29175 29.3911 9.20279 29.8326 10.2687C30.2741 11.3346 30.3897 12.5075 30.1646 13.639C29.9395 14.7706 29.3839 15.81 28.5681 16.6258C27.7523 17.4416 26.7129 17.9972 25.5814 18.2223C24.4498 18.4473 23.2769 18.3318 22.211 17.8903C21.1451 17.4488 20.2341 16.7011 19.5931 15.7418C18.9521 14.7826 18.61 13.6547 18.61 12.501C18.6118 10.9545 19.2269 9.47175 20.3205 8.37817C21.4141 7.28459 22.8968 6.66945 24.4433 6.66768Z" fill="white"/>
<path d="M76.6667 36.6637H67.5467C66.8324 34.0306 65.2712 31.7059 63.1042 30.0485C60.9372 28.391 58.2849 27.4929 55.5567 27.4929C52.8284 27.4929 50.1761 28.391 48.0091 30.0485C45.8421 31.7059 44.2809 34.0306 43.5667 36.6637H3.33333C2.44928 36.6637 1.60143 37.0149 0.976311 37.64C0.351189 38.2651 0 39.113 0 39.997C0 40.8811 0.351189 41.7289 0.976311 42.354C1.60143 42.9791 2.44928 43.3303 3.33333 43.3303H43.5667C44.2809 45.9634 45.8421 48.2881 48.0091 49.9456C50.1761 51.603 52.8284 52.5011 55.5567 52.5011C58.2849 52.5011 60.9372 51.603 63.1042 49.9456C65.2712 48.2881 66.8324 45.9634 67.5467 43.3303H76.6667C77.5507 43.3303 78.3986 42.9791 79.0237 42.354C79.6488 41.7289 80 40.8811 80 39.997C80 39.113 79.6488 38.2651 79.0237 37.64C78.3986 37.0149 77.5507 36.6637 76.6667 36.6637ZM55.5567 45.8303C54.4029 45.8303 53.2751 45.4882 52.3158 44.8472C51.3565 44.2063 50.6089 43.2952 50.1674 42.2293C49.7259 41.1634 49.6103 39.9905 49.8354 38.859C50.0605 37.7274 50.6161 36.688 51.4319 35.8722C52.2477 35.0564 53.2871 34.5009 54.4186 34.2758C55.5502 34.0507 56.7231 34.1662 57.789 34.6077C58.8549 35.0492 59.7659 35.7969 60.4069 36.7562C61.0479 37.7155 61.39 38.8433 61.39 39.997C61.3882 41.5436 60.7731 43.0263 59.6795 44.1198C58.5859 45.2134 57.1032 45.8286 55.5567 45.8303Z" fill="white"/>
<path d="M76.6667 64.1677H36.4367C35.7212 61.5353 34.1594 59.2114 31.9922 57.5546C29.8251 55.8979 27.1729 55.0002 24.445 55.0002C21.7171 55.0002 19.0649 55.8979 16.8978 57.5546C14.7306 59.2114 13.1688 61.5353 12.4533 64.1677H3.33333C2.44928 64.1677 1.60143 64.5189 0.976311 65.144C0.351189 65.7691 0 66.617 0 67.501C0 68.3851 0.351189 69.2329 0.976311 69.858C1.60143 70.4832 2.44928 70.8343 3.33333 70.8343H12.4533C13.1688 73.4668 14.7306 75.7906 16.8978 77.4474C19.0649 79.1042 21.7171 80.0018 24.445 80.0018C27.1729 80.0018 29.8251 79.1042 31.9922 77.4474C34.1594 75.7906 35.7212 73.4668 36.4367 70.8343H76.6667C77.5507 70.8343 78.3986 70.4832 79.0237 69.858C79.6488 69.2329 80 68.3851 80 67.501C80 66.617 79.6488 65.7691 79.0237 65.144C78.3986 64.5189 77.5507 64.1677 76.6667 64.1677ZM24.4433 73.3343C23.2896 73.3343 22.1618 72.9922 21.2025 72.3513C20.2432 71.7103 19.4955 70.7992 19.054 69.7333C18.6125 68.6674 18.497 67.4946 18.7221 66.363C18.9472 65.2315 19.5027 64.1921 20.3185 63.3763C21.1343 62.5605 22.1737 62.0049 23.3053 61.7798C24.4369 61.5547 25.6097 61.6702 26.6757 62.1118C27.7416 62.5533 28.6526 63.3009 29.2936 64.2602C29.9345 65.2195 30.2767 66.3473 30.2767 67.501C30.274 69.0473 29.6586 70.5295 28.5652 71.6229C27.4718 72.7163 25.9896 73.3317 24.4433 73.3343Z" fill="white"/>
</g>
<defs>
<clipPath id="clip0_343_19">
<rect width="80" height="80" fill="white"/>
</clipPath>
</defs>
</svg>
