<svg width="10" height="5" viewBox="0 0 10 5" fill="none" xmlns="http://www.w3.org/2000/svg">
<path d="M5.00002 4.66677C4.84425 4.66707 4.6933 4.61282 4.57335 4.51344L0.573354 1.1801C0.43721 1.06694 0.351594 0.904336 0.335341 0.728052C0.319087 0.551767 0.373529 0.376247 0.486688 0.240102C0.599847 0.103958 0.762454 0.0183417 0.938739 0.00208859C1.11502 -0.0141646 1.29054 0.0402764 1.42669 0.153435L5.00002 3.1401L8.57335 0.260103C8.64155 0.204725 8.72001 0.163371 8.80424 0.138416C8.88846 0.113462 8.97679 0.105399 9.06414 0.114692C9.15149 0.123985 9.23615 0.150449 9.31324 0.192565C9.39033 0.234681 9.45834 0.291618 9.51336 0.360102C9.57441 0.42865 9.62065 0.509068 9.64918 0.596317C9.6777 0.683566 9.68791 0.775766 9.67914 0.867142C9.67038 0.958517 9.64285 1.0471 9.59826 1.12734C9.55367 1.20757 9.49299 1.27774 9.42002 1.33344L5.42002 4.55344C5.29663 4.63711 5.14876 4.67702 5.00002 4.66677Z" fill="white"/>
</svg>
