<svg width="260" height="260" viewBox="0 0 260 260" fill="none" xmlns="http://www.w3.org/2000/svg">
<rect width="260" height="260" rx="10" fill="#28B7FB"/>
<mask id="mask0_1177_1447" style="mask-type:alpha" maskUnits="userSpaceOnUse" x="0" y="0" width="260" height="260">
<rect width="260" height="260" rx="10" fill="#28B7FB"/>
</mask>
<g mask="url(#mask0_1177_1447)">
<path opacity="0.14" fill-rule="evenodd" clip-rule="evenodd" d="M273 291C338.722 291 392 237.722 392 172C392 106.278 338.722 53 273 53C207.278 53 154 106.278 154 172C154 237.722 207.278 291 273 291ZM273 223C301.167 223 324 200.167 324 172C324 143.833 301.167 121 273 121C244.833 121 222 143.833 222 172C222 200.167 244.833 223 273 223Z" fill="white"/>
</g>
<circle cx="79.5" cy="88.5" r="27.5" fill="#F8CD12"/>
<path d="M74.9418 79.3375C75.8249 78.4628 77.0123 77.9819 78.2429 78.0005C79.4734 78.0192 80.6462 78.5359 81.5035 79.437C82.4409 80.4346 82.9552 81.7691 82.9352 83.1511C82.9151 84.5332 82.3622 85.8515 81.3963 86.8203C68.7882 99.8394 61.7275 117.413 61.75 135.718C61.75 155.52 69.8425 173.391 82.849 186.068C83.3513 186.542 83.756 187.113 84.0396 187.748C84.3232 188.383 84.4801 189.069 84.5009 189.767C84.5218 190.464 84.4063 191.159 84.1612 191.81C83.9161 192.462 83.5462 193.057 83.0733 193.561C82.2346 194.445 81.091 194.961 79.8856 194.998C78.6803 195.035 77.5083 194.591 76.6188 193.76C68.8371 186.323 62.6362 177.334 58.4012 167.349C54.1662 157.364 51.9874 146.598 52.0001 135.718C52.0001 113.687 60.7751 93.746 74.9418 79.3375ZM178.604 86.8203C177.639 85.8501 177.088 84.5311 177.07 83.1491C177.052 81.767 177.568 80.4333 178.506 79.437C179.363 78.5389 180.534 78.0241 181.762 78.0055C182.99 77.9868 184.175 78.4658 185.058 79.3375C192.34 86.724 198.116 95.5092 202.054 105.186C205.992 114.863 208.012 125.24 208 135.718C208 158.604 198.542 179.242 183.381 193.76C182.492 194.591 181.32 195.035 180.114 194.998C178.909 194.961 177.765 194.445 176.927 193.561C176.455 193.057 176.087 192.463 175.842 191.812C175.598 191.162 175.483 190.468 175.504 189.772C175.525 189.075 175.681 188.39 175.964 187.756C176.247 187.122 176.65 186.551 177.151 186.078C183.829 179.582 189.143 171.767 192.77 163.11C196.397 154.453 198.261 145.133 198.25 135.718C198.25 116.652 190.752 99.398 178.604 86.8104V86.8203ZM92.287 96.8108C93.1559 95.9663 94.3179 95.5086 95.5173 95.5385C96.7168 95.5683 97.8555 96.0833 98.683 96.97C100.711 99.0397 100.506 102.443 98.5075 104.532C90.5513 112.881 86.1076 124.072 86.125 135.718C86.125 148.554 91.4193 160.137 99.9115 168.306C102.057 170.366 102.349 173.888 100.253 176.028C99.4492 176.881 98.3551 177.385 97.1971 177.437C96.0391 177.489 94.9059 177.084 94.0323 176.307C88.4666 171.182 84.0186 164.92 80.9767 157.927C77.9348 150.935 76.3671 143.368 76.375 135.718C76.375 120.493 82.459 106.732 92.287 96.8108ZM161.492 104.532C159.494 102.443 159.289 99.0397 161.317 96.97C162.144 96.0833 163.283 95.5683 164.483 95.5385C165.682 95.5086 166.844 95.9663 167.713 96.8108C172.761 101.895 176.768 107.953 179.5 114.632C182.232 121.312 183.634 128.48 183.625 135.718C183.636 143.369 182.07 150.938 179.03 157.932C175.99 164.926 171.543 171.189 165.977 176.316C165.1 177.097 163.961 177.502 162.799 177.447C161.636 177.391 160.539 176.879 159.737 176.018C157.651 173.888 157.943 170.366 160.088 168.306C164.448 164.125 167.92 159.076 170.291 153.47C172.663 147.865 173.882 141.823 173.875 135.718C173.892 124.072 169.449 112.881 161.492 104.532ZM130 123.28C126.768 123.28 123.668 124.59 121.382 126.923C119.097 129.255 117.813 132.419 117.813 135.718C117.813 139.017 119.097 142.18 121.382 144.513C123.668 146.846 126.768 148.156 130 148.156C133.232 148.156 136.332 146.846 138.618 144.513C140.903 142.18 142.187 139.017 142.187 135.718C142.187 132.419 140.903 129.255 138.618 126.923C136.332 124.59 133.232 123.28 130 123.28Z" fill="white"/>
</svg>
