<svg width="14" height="14" viewBox="0 0 14 14" fill="none" xmlns="http://www.w3.org/2000/svg">
<circle cx="7" cy="7" r="7" fill="#06D6A0"/>
<path d="M2.918 8.20795L2.91797 8.20798L2.92094 8.21113L4.44727 9.83014L4.44729 9.83017C4.699 10.0971 5.04361 10.25 5.40626 10.25C5.76891 10.25 6.11352 10.0971 6.36523 9.83017L6.36525 9.83014L11.0791 4.8301L11.0791 4.83013L11.082 4.82692C11.1924 4.70565 11.2513 4.54611 11.25 4.3832C11.2486 4.22028 11.1871 4.06171 11.0746 3.94233C10.9616 3.82247 10.8056 3.75156 10.6391 3.75003C10.4726 3.74849 10.3153 3.81654 10.2002 3.93447L10.2002 3.93444L10.1972 3.9376L5.48341 8.93761C5.46029 8.96212 5.43221 8.97292 5.40626 8.97292C5.38031 8.97292 5.35222 8.96212 5.32911 8.93761L3.80281 7.31863L3.80284 7.3186L3.7998 7.3155C3.6847 7.19757 3.52735 7.12952 3.36089 7.13106C3.19445 7.13259 3.0384 7.20351 2.9254 7.32336C2.81286 7.44275 2.75136 7.60131 2.75002 7.76423C2.74869 7.92715 2.80757 8.08668 2.918 8.20795Z" fill="white" stroke="white" stroke-width="0.5"/>
</svg>
