<svg width="36" height="36" viewBox="0 0 36 36" fill="none" xmlns="http://www.w3.org/2000/svg">
<path d="M7.8923 5.38182C8.05843 5.54776 8.19022 5.74482 8.28013 5.96173C8.37005 6.17864 8.41633 6.41115 8.41633 6.64596C8.41633 6.88077 8.37005 7.11327 8.28013 7.33018C8.19022 7.54709 8.05843 7.74415 7.8923 7.91009C5.21115 10.5917 3.70493 14.2285 3.70493 18.0205C3.70493 21.8125 5.21115 25.4493 7.8923 28.1309C8.05819 28.2969 8.18976 28.494 8.2795 28.7108C8.36923 28.9277 8.41537 29.1601 8.41529 29.3948C8.41521 29.6295 8.3689 29.8618 8.27901 30.0786C8.18912 30.2954 8.05742 30.4924 7.89141 30.6583C7.7254 30.8242 7.52834 30.9557 7.31148 31.0455C7.09463 31.1352 6.86222 31.1814 6.62753 31.1813C6.39284 31.1812 6.16047 31.1349 5.94368 31.045C5.72688 30.9551 5.52992 30.8234 5.36403 30.6574C-1.61508 23.6783 -1.61508 12.3609 5.36403 5.38182C5.52997 5.2157 5.72703 5.0839 5.94394 4.99399C6.16085 4.90407 6.39336 4.85779 6.62816 4.85779C6.86297 4.85779 7.09548 4.90407 7.31239 4.99399C7.5293 5.0839 7.72636 5.2157 7.8923 5.38182V5.38182ZM30.6396 5.38182C37.6187 12.3627 37.6187 23.6783 30.6396 30.6574C30.3026 30.9829 29.8513 31.163 29.3828 31.1589C28.9143 31.1548 28.4662 30.9669 28.1349 30.6356C27.8036 30.3043 27.6157 29.8562 27.6116 29.3877C27.6075 28.9192 27.7876 28.4679 28.1131 28.1309C30.7943 25.4493 32.3005 21.8125 32.3005 18.0205C32.3005 14.2285 30.7943 10.5917 28.1131 7.91009C27.7778 7.57506 27.5894 7.12057 27.5892 6.64659C27.5891 6.17261 27.7772 5.71799 28.1122 5.38272C28.4473 5.04745 28.9018 4.859 29.3757 4.85883C29.8497 4.85866 30.3043 5.04679 30.6396 5.38182V5.38182ZM13.1936 10.517C13.5286 10.8521 13.7168 11.3064 13.7168 11.7802C13.7168 12.254 13.5286 12.7084 13.1936 13.0435C12.5432 13.6939 12.0272 14.466 11.6751 15.3159C11.3231 16.1657 11.1419 17.0765 11.1419 17.9964C11.1419 18.9162 11.3231 19.8271 11.6751 20.6769C12.0272 21.5267 12.5432 22.2989 13.1936 22.9493C13.3643 23.1141 13.5004 23.3113 13.594 23.5293C13.6877 23.7473 13.737 23.9817 13.739 24.219C13.7411 24.4562 13.6959 24.6915 13.6061 24.9111C13.5162 25.1307 13.3835 25.3302 13.2158 25.4979C13.048 25.6657 12.8485 25.7984 12.6289 25.8882C12.4093 25.978 12.1741 26.0232 11.9368 26.0212C11.6996 26.0191 11.4651 25.9698 11.2471 25.8762C11.0291 25.7826 10.832 25.6464 10.6671 25.4758C8.68353 23.4921 7.56915 20.8017 7.56915 17.9964C7.56915 15.1911 8.68353 12.5007 10.6671 10.517C11.0022 10.182 11.4566 9.99384 11.9304 9.99384C12.4042 9.99384 12.8586 10.182 13.1936 10.517V10.517ZM25.6277 10.517C27.6113 12.5007 28.7257 15.1911 28.7257 17.9964C28.7257 20.8017 27.6113 23.4921 25.6277 25.4758C25.4618 25.6418 25.2649 25.7735 25.0481 25.8634C24.8313 25.9533 24.5989 25.9996 24.3642 25.9997C24.1295 25.9997 23.8971 25.9536 23.6803 25.8639C23.4634 25.7741 23.2664 25.6426 23.1004 25.4767C22.9343 25.3108 22.8026 25.1138 22.7127 24.897C22.6229 24.6802 22.5765 24.4479 22.5765 24.2132C22.5764 23.9785 22.6225 23.7461 22.7123 23.5292C22.802 23.3124 22.9336 23.1153 23.0995 22.9493C23.7499 22.2989 24.2659 21.5267 24.6179 20.6769C24.97 19.8271 25.1512 18.9162 25.1512 17.9964C25.1512 17.0765 24.97 16.1657 24.6179 15.3159C24.2659 14.466 23.7499 13.6939 23.0995 13.0435C22.7644 12.7082 22.5763 12.2536 22.5765 11.7796C22.5766 11.3056 22.7651 10.8511 23.1004 10.5161C23.4356 10.1811 23.8902 9.99293 24.3642 9.9931C24.8382 9.99327 25.2927 10.1817 25.6277 10.517V10.517ZM18.1465 15.4663C18.4985 15.4663 18.847 15.5356 19.1722 15.6703C19.4974 15.805 19.7928 16.0024 20.0417 16.2513C20.2906 16.5002 20.488 16.7956 20.6227 17.1208C20.7574 17.446 20.8267 17.7945 20.8267 18.1465C20.8267 18.4984 20.7574 18.8469 20.6227 19.1721C20.488 19.4973 20.2906 19.7927 20.0417 20.0416C19.7928 20.2905 19.4974 20.4879 19.1722 20.6226C18.847 20.7573 18.4985 20.8266 18.1465 20.8266C17.4357 20.8266 16.754 20.5442 16.2514 20.0416C15.7488 19.539 15.4664 18.8573 15.4664 18.1465C15.4664 17.4356 15.7488 16.7539 16.2514 16.2513C16.754 15.7487 17.4357 15.4663 18.1465 15.4663V15.4663Z" fill="#28B7FB"/>
</svg>
