<svg width="130" height="130" viewBox="0 0 130 130" fill="none" xmlns="http://www.w3.org/2000/svg">
<g clip-path="url(#clip0_437_111)">
<path d="M97.5 65C91.7929 65.0067 86.185 63.5086 81.2415 60.6569C76.298 57.8052 72.1936 53.7006 69.3422 48.7569C66.4908 43.8132 64.9931 38.2052 65.0001 32.4981C65.0071 26.791 66.5185 21.1867 69.3821 16.25H22.9775L22.75 14.3433C22.2832 10.3924 20.3832 6.75 17.4102 4.1064C14.4371 1.46279 10.5976 0.00169453 6.61917 0L5.41667 0C3.98008 0 2.60233 0.570683 1.58651 1.58651C0.570683 2.60233 0 3.98008 0 5.41667C0 6.85326 0.570683 8.23101 1.58651 9.24683C2.60233 10.2627 3.98008 10.8333 5.41667 10.8333H6.61917C7.94589 10.8335 9.22641 11.3206 10.2178 12.2022C11.2093 13.0838 11.8427 14.2986 11.9979 15.6163L19.4513 78.9913C20.225 85.5822 23.3918 91.6597 28.3503 96.0701C33.3089 100.48 39.7142 102.917 46.3504 102.917H102.917C104.353 102.917 105.731 102.346 106.747 101.33C107.763 100.314 108.333 98.9366 108.333 97.5C108.333 96.0634 107.763 94.6857 106.747 93.6698C105.731 92.654 104.353 92.0833 102.917 92.0833H46.3504C42.9969 92.075 39.728 91.0294 36.9923 89.0898C34.2565 87.1502 32.1878 84.4118 31.07 81.25H95.6421C101.992 81.2504 108.14 79.0196 113.012 74.9474C117.885 70.8752 121.171 65.2205 122.298 58.9713L123.587 51.8267C120.574 55.9117 116.643 59.232 112.112 61.5201C107.581 63.8082 102.576 65.0002 97.5 65Z" fill="#48D097"/>
<path d="M37.9163 130.003C43.8994 130.003 48.7496 125.153 48.7496 119.17C48.7496 113.187 43.8994 108.337 37.9163 108.337C31.9332 108.337 27.083 113.187 27.083 119.17C27.083 125.153 31.9332 130.003 37.9163 130.003Z" fill="#48D097"/>
<path d="M92.0833 130.003C98.0664 130.003 102.917 125.153 102.917 119.17C102.917 113.187 98.0664 108.337 92.0833 108.337C86.1002 108.337 81.25 113.187 81.25 119.17C81.25 125.153 86.1002 130.003 92.0833 130.003Z" fill="#48D097"/>
<path d="M85.2208 48.456C86.1523 49.4622 87.2783 50.2689 88.5305 50.8276C89.7827 51.3862 91.1352 51.685 92.5062 51.706H92.685C94.0286 51.7104 95.3597 51.4479 96.6011 50.9337C97.8424 50.4195 98.9693 49.6638 99.9162 48.7106L123.056 25.5706C124.077 24.552 124.651 23.1697 124.653 21.7278C124.654 20.2858 124.083 18.9023 123.064 17.8816C122.046 16.8609 120.663 16.2867 119.221 16.2851C117.78 16.2836 116.396 16.855 115.375 17.8735L92.6958 40.591L86.0116 33.4193C85.0305 32.3685 83.672 31.7504 82.2351 31.7012C80.7982 31.6519 79.4006 32.1754 78.3498 33.1566C77.2989 34.1378 76.6809 35.4963 76.6316 36.9332C76.5823 38.37 77.1059 39.7676 78.0871 40.8185L85.2208 48.456Z" fill="#48D097"/>
</g>
<defs>
<clipPath id="clip0_437_111">
<rect width="130" height="130" fill="white"/>
</clipPath>
</defs>
</svg>
