<svg width="36" height="36" viewBox="0 0 36 36" fill="none" xmlns="http://www.w3.org/2000/svg">
<g clip-path="url(#clip0_704_1613)">
<path d="M0 13.4999V26.9999C0.00238179 28.9883 0.793323 30.8945 2.19933 32.3005C3.60534 33.7066 5.51161 34.4975 7.5 34.4999H28.5C30.4884 34.4975 32.3947 33.7066 33.8007 32.3005C35.2067 30.8945 35.9976 28.9883 36 26.9999V13.4999H0ZM21 28.4999H9C8.60218 28.4999 8.22064 28.3418 7.93934 28.0605C7.65804 27.7792 7.5 27.3977 7.5 26.9999C7.5 26.6021 7.65804 26.2205 7.93934 25.9392C8.22064 25.6579 8.60218 25.4999 9 25.4999H21C21.3978 25.4999 21.7794 25.6579 22.0607 25.9392C22.342 26.2205 22.5 26.6021 22.5 26.9999C22.5 27.3977 22.342 27.7792 22.0607 28.0605C21.7794 28.3418 21.3978 28.4999 21 28.4999ZM27 22.4999H9C8.60218 22.4999 8.22064 22.3418 7.93934 22.0605C7.65804 21.7792 7.5 21.3977 7.5 20.9999C7.5 20.6021 7.65804 20.2205 7.93934 19.9392C8.22064 19.6579 8.60218 19.4999 9 19.4999H27C27.3978 19.4999 27.7794 19.6579 28.0607 19.9392C28.342 20.2205 28.5 20.6021 28.5 20.9999C28.5 21.3977 28.342 21.7792 28.0607 22.0605C27.7794 22.3418 27.3978 22.4999 27 22.4999ZM36 10.4999V8.99988C35.9976 7.01149 35.2067 5.10521 33.8007 3.69921C32.3947 2.2932 30.4884 1.50226 28.5 1.49988H7.5C5.51161 1.50226 3.60534 2.2932 2.19933 3.69921C0.793323 5.10521 0.00238179 7.01149 0 8.99988L0 10.4999H36ZM15 4.49988C15.2967 4.49988 15.5867 4.58785 15.8334 4.75267C16.08 4.9175 16.2723 5.15176 16.3858 5.42585C16.4994 5.69994 16.5291 6.00154 16.4712 6.29251C16.4133 6.58348 16.2704 6.85076 16.0607 7.06054C15.8509 7.27032 15.5836 7.41318 15.2926 7.47106C15.0017 7.52893 14.7001 7.49923 14.426 7.3857C14.1519 7.27217 13.9176 7.07991 13.7528 6.83323C13.588 6.58656 13.5 6.29655 13.5 5.99988C13.5 5.60205 13.658 5.22052 13.9393 4.93922C14.2206 4.65791 14.6022 4.49988 15 4.49988V4.49988ZM10.5 4.49988C10.7967 4.49988 11.0867 4.58785 11.3334 4.75267C11.58 4.9175 11.7723 5.15176 11.8858 5.42585C11.9994 5.69994 12.0291 6.00154 11.9712 6.29251C11.9133 6.58348 11.7704 6.85076 11.5607 7.06054C11.3509 7.27032 11.0836 7.41318 10.7926 7.47106C10.5017 7.52893 10.2001 7.49923 9.92598 7.3857C9.65189 7.27217 9.41762 7.07991 9.2528 6.83323C9.08797 6.58656 9 6.29655 9 5.99988C9 5.60205 9.15804 5.22052 9.43934 4.93922C9.72064 4.65791 10.1022 4.49988 10.5 4.49988ZM6 4.49988C6.29667 4.49988 6.58668 4.58785 6.83336 4.75267C7.08003 4.9175 7.27229 5.15176 7.38582 5.42585C7.49935 5.69994 7.52906 6.00154 7.47118 6.29251C7.4133 6.58348 7.27044 6.85076 7.06066 7.06054C6.85088 7.27032 6.58361 7.41318 6.29264 7.47106C6.00166 7.52893 5.70006 7.49923 5.42597 7.3857C5.15189 7.27217 4.91762 7.07991 4.7528 6.83323C4.58797 6.58656 4.5 6.29655 4.5 5.99988C4.5 5.60205 4.65804 5.22052 4.93934 4.93922C5.22064 4.65791 5.60218 4.49988 6 4.49988V4.49988Z" fill="#28B7FB"/>
</g>
<defs>
<clipPath id="clip0_704_1613">
<rect width="36" height="36" fill="white"/>
</clipPath>
</defs>
</svg>
