<svg width="130" height="130" viewBox="0 0 130 130" fill="none" xmlns="http://www.w3.org/2000/svg">
<path fill-rule="evenodd" clip-rule="evenodd" d="M62.8812 0.217175C57.4689 1.3501 53.5723 7.29008 54.4665 13.0441C55.2412 18.0272 58.7582 21.7765 63.4326 22.6023C70.3227 23.8193 76.6751 17.0475 75.5335 9.70224C74.5272 3.22984 68.8437 -1.03107 62.8812 0.217175ZM54.873 30.8018C50.61 31.8067 46.985 34.909 45.0661 39.1956C43.8647 41.8788 43.5635 43.8444 43.5587 49.0315L43.5547 53.5403H34.6191H25.6836V57.3506V61.1609H29.2578H32.832V65.8097V70.4582L33.9217 71.0227C37.4132 72.831 40.8111 76.8681 42.2975 80.9744C43.1927 83.4472 43.436 85.0554 43.4217 88.4044L43.4079 91.6432H45.3346H47.2614L47.2621 88.1504C47.2631 84.4973 47.4232 83.5247 48.4859 80.7203C50.2194 76.146 53.8665 72.2239 58.209 70.2644C60.5179 69.2224 62.0696 68.9138 65 68.9138C67.9304 68.9138 69.4821 69.2224 71.791 70.2644C76.1335 72.2239 79.7806 76.146 81.5141 80.7203C82.5768 83.5247 82.7369 84.4973 82.7379 88.1504L82.7386 91.6432H84.6654H86.5921L86.5783 88.4044C86.564 85.0554 86.8073 83.4472 87.7025 80.9744C89.1889 76.8681 92.5868 72.831 96.0783 71.0227L97.168 70.4582V65.8097V61.1609H100.742H104.316V57.3506V53.5403H95.3809H86.4453L86.4413 49.0315C86.4365 43.8503 86.1358 41.8844 84.9377 39.1956C83.3136 35.5512 80.2474 32.6114 76.6703 31.2695C75.1994 30.7175 74.3382 30.5798 71.7314 30.4797L68.5742 30.3583V41.9494V53.5403H65H61.4258V41.9825V30.4246L58.8643 30.4447C57.4555 30.4558 55.6594 30.6166 54.873 30.8018ZM23.5648 76.6769C18.1525 77.8098 14.2559 83.7498 15.1501 89.5038C16.1187 95.7351 21.5954 100.061 27.251 99.062C33.0963 98.0294 37.1542 92.1911 36.2171 86.1619C35.2108 79.6895 29.5273 75.4286 23.5648 76.6769ZM62.8812 76.6769C57.4689 77.8098 53.5723 83.7498 54.4665 89.5038C55.2412 94.4869 58.7582 98.2362 63.4326 99.062C70.3227 100.279 76.6751 93.5071 75.5335 86.1619C74.5272 79.6895 68.8437 75.4286 62.8812 76.6769ZM102.198 76.6769C96.7853 77.8098 92.8887 83.7498 93.7829 89.5038C94.5576 94.4869 98.0746 98.2362 102.749 99.062C109.639 100.279 115.991 93.5071 114.85 86.1619C113.844 79.6895 108.16 75.4286 102.198 76.6769ZM15.4375 107.281C10.1574 108.494 5.47544 113.533 4.35837 119.204C4.12748 120.377 4.00691 122.517 4.00405 125.491L4 130H20.2031H36.4062V125.334C36.4062 118.57 37.2317 114.48 39.3678 110.657L40.183 109.198L39.4265 108.729C38.4104 108.099 36.797 107.491 35.2627 107.158C33.3053 106.734 17.389 106.832 15.4375 107.281ZM54.873 107.254C50.584 108.289 46.9828 111.374 45.0661 115.655C43.8647 118.339 43.5635 120.304 43.5587 125.491L43.5547 130H65H86.4453L86.4413 125.491C86.4365 120.31 86.1358 118.344 84.9377 115.655C83.321 112.028 80.2898 109.113 76.6703 107.705L74.8887 107.011L65.5957 106.96C58.484 106.921 55.9672 106.99 54.873 107.254ZM94.3086 107.262C92.6795 107.667 91.5522 108.108 90.5735 108.723L89.817 109.198L90.6322 110.657C92.7683 114.48 93.5938 118.57 93.5938 125.334V130H109.797H126L125.996 125.491C125.993 122.517 125.873 120.377 125.642 119.204C124.512 113.47 119.823 108.47 114.443 107.266C112.214 106.767 96.3123 106.764 94.3086 107.262Z" fill="#5893ED"/>
</svg>
