<svg width="36" height="36" viewBox="0 0 36 36" fill="none" xmlns="http://www.w3.org/2000/svg">
<g clip-path="url(#clip0_704_1603)">
<path d="M21.0315 9.15756L14.6895 2.81706C14.2729 2.39756 13.7772 2.06499 13.231 1.83865C12.6849 1.61231 12.0992 1.49671 11.508 1.49856H1.5C1.10218 1.49856 0.720644 1.65659 0.43934 1.9379C0.158035 2.2192 0 2.60073 0 2.99856C0 3.39638 0.158035 3.77791 0.43934 4.05922C0.720644 4.34052 1.10218 4.49856 1.5 4.49856H11.508C11.9056 4.49962 12.2867 4.65757 12.5685 4.93806L16.629 8.99856H7.5C5.51161 9.00094 3.60534 9.79188 2.19933 11.1979C0.793323 12.6039 0.00238179 14.5102 0 16.4986L0 28.4986C0.00238179 30.487 0.793323 32.3932 2.19933 33.7992C3.60534 35.2052 5.51161 35.9962 7.5 35.9986H19.5C21.4884 35.9962 23.3947 35.2052 24.8007 33.7992C26.2067 32.3932 26.9976 30.487 27 28.4986V16.4986C26.9975 14.7761 26.4032 13.1068 25.3166 11.7704C24.2301 10.4339 22.7172 9.51147 21.0315 9.15756V9.15756Z" fill="#28B7FB"/>
<path d="M34.3499 13.4338C33.8533 13.1822 33.2961 13.0746 32.7415 13.1234C32.1868 13.1722 31.657 13.3753 31.2119 13.7098L30.0119 14.6098V30.3928L31.2119 31.2928C31.6576 31.6271 32.1876 31.8307 32.7425 31.8807C33.2974 31.9308 33.8552 31.8253 34.3535 31.5761C34.8519 31.327 35.2709 30.944 35.5638 30.47C35.8567 29.9961 36.0119 29.45 36.0119 28.8928V16.1158C36.0134 15.5581 35.8585 15.0111 35.5647 14.537C35.2709 14.0629 34.85 13.6807 34.3499 13.4338V13.4338Z" fill="#28B7FB"/>
</g>
<defs>
<clipPath id="clip0_704_1603">
<rect width="36" height="36" fill="white"/>
</clipPath>
</defs>
</svg>
