<svg width="20" height="20" viewBox="0 0 20 20" fill="none" xmlns="http://www.w3.org/2000/svg">
<g clip-path="url(#clip0_549_488)">
<path d="M10.0001 6.62152C10.7011 6.62152 11.2693 6.05328 11.2693 5.35234C11.2693 4.6514 10.7011 4.08316 10.0001 4.08316C9.2992 4.08316 8.73096 4.6514 8.73096 5.35234C8.73096 6.05328 9.2992 6.62152 10.0001 6.62152Z" fill="#28B7FB"/>
<path d="M16.6666 0.000534058H3.33326C1.48017 0.0151825 -0.0111543 1.52741 -6.05715e-05 3.38053V13.5222C-0.0111543 15.3754 1.48006 16.8879 3.33326 16.903H5.76908L8.8924 19.5697C9.51107 20.1351 10.4564 20.1433 11.0849 19.5889L14.2891 16.9022H16.6666C18.5198 16.8871 20.011 15.3746 19.9999 13.5214V3.38053C20.011 1.52741 18.5197 0.0151825 16.6666 0.000534058ZM9.99994 2.53553C13.8458 2.63721 13.8449 8.34971 9.99994 8.45221C6.15412 8.34967 6.15494 2.63967 9.99994 2.53553ZM13.5408 14.3405C13.0948 14.4543 12.6411 14.185 12.5273 13.7391C12.5268 13.7371 12.5263 13.7351 12.5258 13.733C12.0992 12.3378 10.6224 11.5526 9.22721 11.9791C8.38736 12.2358 7.73002 12.8932 7.47326 13.733C7.35681 14.1785 6.90127 14.4453 6.45576 14.3289C6.01025 14.2124 5.74349 13.7569 5.85994 13.3114C6.50431 11.0247 8.88041 9.69331 11.1671 10.3377C12.6083 10.7438 13.7346 11.8701 14.1408 13.3114C14.2568 13.7609 13.9891 14.22 13.5408 14.3405Z" fill="#28B7FB"/>
</g>
<defs>
<clipPath id="clip0_549_488">
<rect width="20" height="20" fill="white"/>
</clipPath>
</defs>
</svg>
