<svg width="20" height="20" viewBox="0 0 20 20" fill="none" xmlns="http://www.w3.org/2000/svg">
<g clip-path="url(#clip0_549_479)">
<path d="M18.9717 3.80496C18.6672 3.67812 18.3318 3.64478 18.0083 3.70918C17.6847 3.77359 17.3877 3.93283 17.155 4.16663L15 6.32163L11.1783 2.49996C10.8658 2.18751 10.4419 2.01199 10 2.01199C9.55806 2.01199 9.13421 2.18751 8.82167 2.49996L5 6.32163L2.845 4.16663C2.61191 3.93361 2.31497 3.77494 1.99172 3.71066C1.66846 3.64638 1.33341 3.67938 1.02891 3.8055C0.724409 3.93162 0.464138 4.14518 0.280997 4.4192C0.0978568 4.69322 7.03739e-05 5.01538 0 5.34496L0 14.1666C0.00132321 15.2713 0.440735 16.3303 1.22185 17.1114C2.00296 17.8926 3.062 18.332 4.16667 18.3333H15.8333C16.938 18.332 17.997 17.8926 18.7782 17.1114C19.5593 16.3303 19.9987 15.2713 20 14.1666V5.34496C20.0001 5.01535 19.9024 4.69312 19.7194 4.41901C19.5364 4.14489 19.2761 3.9312 18.9717 3.80496Z" fill="#28B7FB"/>
</g>
<defs>
<clipPath id="clip0_549_479">
<rect width="20" height="20" fill="white"/>
</clipPath>
</defs>
</svg>
