<svg width="20" height="20" viewBox="0 0 20 20" fill="none" xmlns="http://www.w3.org/2000/svg">
<g clip-path="url(#clip0_577_1094)">
<path d="M14.37 3.33277C14.1369 3.09975 13.84 2.94107 13.5167 2.87679C13.1935 2.81251 12.8584 2.84552 12.5539 2.97164C12.2494 3.09775 11.9891 3.31132 11.806 3.58533C11.6229 3.85935 11.5251 4.18151 11.525 4.5111V5.83276H7.5C5.51155 5.83497 3.60518 6.62585 2.19914 8.03189C0.79309 9.43794 0.00220571 11.3443 0 13.3328L0 19.1661C0 19.3871 0.0877974 19.5991 0.244078 19.7553C0.400358 19.9116 0.61232 19.9994 0.833333 19.9994C1.05435 19.9994 1.26631 19.9116 1.42259 19.7553C1.57887 19.5991 1.66667 19.3871 1.66667 19.1661C1.66799 17.8404 2.1952 16.5694 3.13259 15.632C4.06999 14.6946 5.34099 14.1674 6.66667 14.1661H11.525V15.4877C11.5251 15.8173 11.6229 16.1395 11.806 16.4135C11.9891 16.6875 12.2494 16.9011 12.5539 17.0272C12.8584 17.1533 13.1935 17.1863 13.5167 17.1221C13.84 17.0578 14.1369 16.8991 14.37 16.6661L19.2692 11.7669C19.7378 11.2981 20.0011 10.6623 20.0011 9.99942C20.0011 9.33651 19.7378 8.70074 19.2692 8.23192L14.37 3.33277Z" fill="#28B7FB"/>
</g>
<defs>
<clipPath id="clip0_577_1094">
<rect width="20" height="20" fill="white"/>
</clipPath>
</defs>
</svg>
