<svg width="20" height="20" viewBox="0 0 20 20" fill="none" xmlns="http://www.w3.org/2000/svg">
<g clip-path="url(#clip0_577_1086)">
<path d="M13.3333 0.249992C13.9215 0.45164 14.4567 0.783178 14.8992 1.21999L16.2792 2.60166C16.7165 3.04357 17.0484 3.57854 17.25 4.16666H13.3333V0.249992ZM11.6667 9.99999H8.33333C8.11232 9.99999 7.90036 10.0878 7.74408 10.2441C7.5878 10.4004 7.5 10.6123 7.5 10.8333C7.5 11.0543 7.5878 11.2663 7.74408 11.4226C7.90036 11.5789 8.11232 11.6667 8.33333 11.6667H11.6667C11.8877 11.6667 12.0996 11.5789 12.2559 11.4226C12.4122 11.2663 12.5 11.0543 12.5 10.8333C12.5 10.6123 12.4122 10.4004 12.2559 10.2441C12.0996 10.0878 11.8877 9.99999 11.6667 9.99999ZM13.3333 5.83333C12.8913 5.83333 12.4674 5.65773 12.1548 5.34517C11.8423 5.03261 11.6667 4.60869 11.6667 4.16666V-7.62939e-06H6.66667C5.562 0.00131559 4.50296 0.440727 3.72185 1.22184C2.94073 2.00296 2.50132 3.062 2.5 4.16666V15.8333C2.50132 16.938 2.94073 17.997 3.72185 18.7781C4.50296 19.5593 5.562 19.9987 6.66667 20H13.3333C14.438 19.9987 15.497 19.5593 16.2782 18.7781C17.0593 17.997 17.4987 16.938 17.5 15.8333V5.83333H13.3333ZM13.3333 16.6667H6.66667C6.44565 16.6667 6.23369 16.5789 6.07741 16.4226C5.92113 16.2663 5.83333 16.0543 5.83333 15.8333C5.83333 15.6123 5.92113 15.4003 6.07741 15.2441C6.23369 15.0878 6.44565 15 6.66667 15H13.3333C13.5543 15 13.7663 15.0878 13.9226 15.2441C14.0789 15.4003 14.1667 15.6123 14.1667 15.8333C14.1667 16.0543 14.0789 16.2663 13.9226 16.4226C13.7663 16.5789 13.5543 16.6667 13.3333 16.6667ZM11.6667 13.3333H8.33333C7.67029 13.3333 7.03441 13.0699 6.56557 12.6011C6.09673 12.1323 5.83333 11.4964 5.83333 10.8333C5.83333 10.1703 6.09673 9.5344 6.56557 9.06556C7.03441 8.59672 7.67029 8.33333 8.33333 8.33333H11.6667C12.3297 8.33333 12.9656 8.59672 13.4344 9.06556C13.9033 9.5344 14.1667 10.1703 14.1667 10.8333C14.1667 11.4964 13.9033 12.1323 13.4344 12.6011C12.9656 13.0699 12.3297 13.3333 11.6667 13.3333Z" fill="#28B7FB"/>
</g>
<defs>
<clipPath id="clip0_577_1086">
<rect width="20" height="20" fill="white"/>
</clipPath>
</defs>
</svg>
