<svg width="40" height="40" viewBox="0 0 40 40" fill="none" xmlns="http://www.w3.org/2000/svg">
<circle cx="20" cy="20" r="20" fill="url(#paint0_radial_434_174)"/>
<path fill-rule="evenodd" clip-rule="evenodd" d="M14.2917 10.2499C11.9906 10.2499 10.1251 12.19 10.1251 14.5833V25.4166C10.1251 27.8098 11.9906 29.7499 14.2917 29.7499H24.7084C27.0096 29.7499 28.8751 27.8098 28.8751 25.4166V14.5833C28.8751 12.19 27.0096 10.2499 24.7084 10.2499H14.2917ZM8.04175 14.5833C8.04175 10.9934 10.84 8.08325 14.2917 8.08325H24.7084C28.1602 8.08325 30.9584 10.9934 30.9584 14.5833V25.4166C30.9584 29.0064 28.1602 31.9166 24.7084 31.9166H14.2917C10.84 31.9166 8.04175 29.0064 8.04175 25.4166V14.5833Z" fill="white"/>
<path fill-rule="evenodd" clip-rule="evenodd" d="M20.0036 16.7382C19.3535 16.6379 18.6894 16.7534 18.106 17.0683C17.5225 17.3831 17.0494 17.8813 16.7539 18.4919C16.4584 19.1025 16.3555 19.7945 16.4599 20.4694C16.5644 21.1443 16.8708 21.7678 17.3355 22.2511C17.8003 22.7345 18.3998 23.0532 19.0488 23.1618C19.6977 23.2704 20.3631 23.1634 20.9502 22.8561C21.5374 22.5487 22.0163 22.0567 22.3191 21.4499C22.6218 20.8431 22.7329 20.1525 22.6365 19.4763C22.5381 18.7866 22.2291 18.148 21.755 17.655C21.2809 17.1619 20.6669 16.8405 20.0036 16.7382ZM17.1465 15.1451C18.1188 14.6204 19.2256 14.4279 20.3092 14.595C21.4146 14.7654 22.4379 15.3011 23.2281 16.1229C24.0183 16.9447 24.5333 18.0089 24.6973 19.1585C24.8579 20.2855 24.6729 21.4365 24.1683 22.4478C23.6637 23.4591 22.8654 24.2792 21.8869 24.7914C20.9083 25.3036 19.7994 25.4819 18.7178 25.3009C17.6362 25.1199 16.637 24.5888 15.8624 23.7832C15.0878 22.9776 14.5771 21.9384 14.4031 20.8136C14.229 19.6887 14.4005 18.5355 14.893 17.5178C15.3855 16.5001 16.1741 15.6698 17.1465 15.1451Z" fill="white"/>
<path fill-rule="evenodd" clip-rule="evenodd" d="M24.1875 14.0416C24.1875 13.4433 24.6539 12.9583 25.2292 12.9583H25.2396C25.8149 12.9583 26.2812 13.4433 26.2812 14.0416C26.2812 14.6399 25.8149 15.1249 25.2396 15.1249H25.2292C24.6539 15.1249 24.1875 14.6399 24.1875 14.0416Z" fill="white"/>
<defs>
<radialGradient id="paint0_radial_434_174" cx="0" cy="0" r="1" gradientUnits="userSpaceOnUse" gradientTransform="translate(5.5 35) rotate(-45.9878) scale(41.0183)">
<stop stop-color="#FFDA55"/>
<stop offset="0.417909" stop-color="#F9514A"/>
<stop offset="0.70335" stop-color="#B831B6"/>
<stop offset="0.942708" stop-color="#4069C9"/>
</radialGradient>
</defs>
</svg>
