<svg width="260" height="260" viewBox="0 0 260 260" fill="none" xmlns="http://www.w3.org/2000/svg">
<rect width="260" height="260" rx="10" fill="#28B7FB"/>
<mask id="mask0_901_1313" style="mask-type:alpha" maskUnits="userSpaceOnUse" x="0" y="0" width="260" height="260">
<rect width="260" height="260" rx="10" fill="#28B7FB"/>
</mask>
<g mask="url(#mask0_901_1313)">
<path opacity="0.14" fill-rule="evenodd" clip-rule="evenodd" d="M226 130C291.722 130 345 76.7219 345 11C345 -54.7219 291.722 -108 226 -108C160.278 -108 107 -54.7219 107 11C107 76.7219 160.278 130 226 130ZM226 62C254.167 62 277 39.1665 277 11C277 -17.1665 254.167 -40 226 -40C197.833 -40 175 -17.1665 175 11C175 39.1665 197.833 62 226 62Z" fill="white"/>
</g>
<circle cx="77.5" cy="88.5" r="27.5" fill="#F8CD12"/>
<path d="M101.875 195.625H73.75C71.2636 195.625 68.879 194.637 67.1209 192.879C65.3627 191.121 64.375 188.736 64.375 186.25V130C64.375 127.514 65.3627 125.129 67.1209 123.371C68.879 121.613 71.2636 120.625 73.75 120.625H101.875C104.361 120.625 106.746 121.613 108.504 123.371C110.262 125.129 111.25 127.514 111.25 130V186.25C111.25 188.736 110.262 191.121 108.504 192.879C106.746 194.637 104.361 195.625 101.875 195.625ZM73.75 130V186.25H101.875V130H73.75Z" fill="white"/>
<path d="M186.25 73.75H83.125C80.6386 73.75 78.254 74.7377 76.4959 76.4959C74.7377 78.254 73.75 80.6386 73.75 83.125V111.25H83.125V83.125H186.25V148.75H120.625V158.125H130V176.875H120.625V186.25H162.812V176.875H139.375V158.125H186.25C188.736 158.125 191.121 157.137 192.879 155.379C194.637 153.621 195.625 151.236 195.625 148.75V83.125C195.625 80.6386 194.637 78.254 192.879 76.4959C191.121 74.7377 188.736 73.75 186.25 73.75Z" fill="white"/>
</svg>
