<svg width="40" height="40" viewBox="0 0 40 40" fill="none" xmlns="http://www.w3.org/2000/svg">
<circle cx="20" cy="20" r="20" fill="url(#paint0_radial_434_175)"/>
<path d="M32.25 19.9234C32.25 19.8632 32.25 19.7949 32.2473 19.7156C32.2445 19.4941 32.2391 19.2453 32.2336 18.98C32.2117 18.2171 32.1734 17.457 32.1133 16.7406C32.0312 15.7535 31.9109 14.9304 31.7469 14.3125C31.5737 13.6675 31.2344 13.0794 30.7627 12.6067C30.291 12.1341 29.7035 11.7935 29.059 11.6191C28.2852 11.4113 26.7703 11.2828 24.6375 11.2035C23.623 11.1652 22.5375 11.1406 21.452 11.1269C21.0719 11.1214 20.7191 11.1187 20.402 11.116H19.598C19.2809 11.1187 18.9281 11.1214 18.548 11.1269C17.4625 11.1406 16.377 11.1652 15.3625 11.2035C13.2297 11.2855 11.7121 11.414 10.941 11.6191C10.2963 11.7931 9.70855 12.1335 9.2368 12.6062C8.76505 13.0789 8.42583 13.6673 8.25313 14.3125C8.08633 14.9304 7.96875 15.7535 7.88672 16.7406C7.82656 17.457 7.78828 18.2171 7.76641 18.98C7.7582 19.2453 7.75547 19.4941 7.75273 19.7156C7.75273 19.7949 7.75 19.8632 7.75 19.9234V20.0765C7.75 20.1367 7.75 20.205 7.75273 20.2843C7.75547 20.5058 7.76094 20.7546 7.76641 21.0199C7.78828 21.7828 7.82656 22.5429 7.88672 23.2593C7.96875 24.2464 8.08906 25.0695 8.25313 25.6875C8.60313 26.9972 9.63125 28.0308 10.941 28.3808C11.7121 28.5886 13.2297 28.7171 15.3625 28.7964C16.377 28.8347 17.4625 28.8593 18.548 28.873C18.9281 28.8785 19.2809 28.8812 19.598 28.8839H20.402C20.7191 28.8812 21.0719 28.8785 21.452 28.873C22.5375 28.8593 23.623 28.8347 24.6375 28.7964C26.7703 28.7144 28.2879 28.5859 29.059 28.3808C30.3687 28.0308 31.3969 27 31.7469 25.6875C31.9137 25.0695 32.0312 24.2464 32.1133 23.2593C32.1734 22.5429 32.2117 21.7828 32.2336 21.0199C32.2418 20.7546 32.2445 20.5058 32.2473 20.2843C32.2473 20.205 32.25 20.1367 32.25 20.0765V19.9234V19.9234ZM30.2812 20.0656C30.2812 20.123 30.2813 20.1859 30.2785 20.2597C30.2758 20.473 30.2703 20.7082 30.2648 20.9625C30.2457 21.6898 30.2074 22.4171 30.15 23.0925C30.0762 23.973 29.9723 24.6949 29.8438 25.1789C29.6742 25.8105 29.1766 26.3109 28.5477 26.4777C27.9734 26.6308 26.527 26.7539 24.5609 26.8277C23.5656 26.866 22.4937 26.8906 21.4246 26.9042C21.05 26.9097 20.7027 26.9124 20.391 26.9124H19.609L18.5754 26.9042C17.5062 26.8906 16.4371 26.866 15.4391 26.8277C13.473 26.7511 12.0238 26.6308 11.4523 26.4777C10.8234 26.3082 10.3258 25.8105 10.1562 25.1789C10.0277 24.6949 9.92383 23.973 9.85 23.0925C9.79258 22.4171 9.75703 21.6898 9.73516 20.9625C9.72695 20.7082 9.72422 20.4703 9.72148 20.2597C9.72148 20.1859 9.71875 20.1203 9.71875 20.0656V19.9343C9.71875 19.8769 9.71875 19.814 9.72148 19.7402C9.72422 19.5269 9.72969 19.2917 9.73516 19.0375C9.7543 18.3101 9.79258 17.5828 9.85 16.9074C9.92383 16.0269 10.0277 15.305 10.1562 14.821C10.3258 14.1894 10.8234 13.689 11.4523 13.5222C12.0266 13.3691 13.473 13.246 15.4391 13.1722C16.4344 13.1339 17.5062 13.1093 18.5754 13.0957C18.95 13.0902 19.2973 13.0875 19.609 13.0875H20.391L21.4246 13.0957C22.4937 13.1093 23.5629 13.1339 24.5609 13.1722C26.527 13.2488 27.9762 13.3691 28.5477 13.5222C29.1766 13.6917 29.6742 14.1894 29.8438 14.821C29.9723 15.305 30.0762 16.0269 30.15 16.9074C30.2074 17.5828 30.243 18.3101 30.2648 19.0375C30.273 19.2917 30.2758 19.5296 30.2785 19.7402C30.2785 19.814 30.2812 19.8796 30.2812 19.9343V20.0656ZM17.5664 23.664L23.9102 19.9726L17.5664 16.3359V23.664Z" fill="white"/>
<defs>
<radialGradient id="paint0_radial_434_175" cx="0" cy="0" r="1" gradientUnits="userSpaceOnUse" gradientTransform="translate(5.5 35) rotate(-45.9878) scale(41.0183)">
<stop stop-color="#FE0000"/>
<stop offset="0.494792" stop-color="#FF3F3F"/>
<stop offset="0.942708" stop-color="#E20404"/>
</radialGradient>
</defs>
</svg>
